<?xml version="1.0" encoding="utf-8"?>
<!-- Generator: Adobe Illustrator 21.0.0, SVG Export Plug-In . SVG Version: 6.00 Build 0)  -->
<svg version="1.1" id="Layer_1" xmlns="http://www.w3.org/2000/svg" xmlns:xlink="http://www.w3.org/1999/xlink" x="0px" y="0px"
	 viewBox="0 0 300 127.4" style="enable-background:new 0 0 300 127.4;" xml:space="preserve">
<style type="text/css">
	.st0{fill:none;stroke:#0559A2;stroke-width:0.75;stroke-miterlimit:10;}
	.st1{fill:#0559A2;}
	.st2{fill:none;stroke:#0559A2;stroke-width:0.75;stroke-linecap:round;stroke-linejoin:round;stroke-miterlimit:10;}
</style>
<g>
	<rect x="1" y="74.8" class="st0" width="136" height="51.3"/>
	<rect x="148.3" y="107.5" class="st0" width="18.7" height="18.7"/>
	<rect x="137" y="109.6" class="st0" width="11.2" height="16.5"/>
	<polygon class="st0" points="218.7,126.1 166.8,126.1 166.8,84.8 192.8,68.3 218.7,84.8 	"/>
	<polygon class="st0" points="197,126.2 188.6,126.2 188.6,113.6 192.8,110.1 197,113.6 	"/>
	<path class="st0" d="M82.8,125.9h-8.4v-12.7c0,0,0.8-3.4,4.2-3.4c3.4,0,4.2,3.4,4.2,3.4L82.8,125.9z"/>
	<rect x="154.8" y="113.6" class="st0" width="5.5" height="12.7"/>
	<circle class="st0" cx="192.8" cy="97.3" r="4.2"/>
	<line class="st0" x1="137" y1="101.5" x2="1" y2="101.5"/>
	<rect x="124.7" y="86.3" class="st1" width="5" height="10.8"/>
	<rect x="124.7" y="80.8" class="st1" width="5" height="2.6"/>
	<rect x="105.4" y="86.3" class="st1" width="5" height="10.8"/>
	<rect x="105.4" y="80.8" class="st1" width="5" height="2.6"/>
	<rect x="124.7" y="110.8" class="st1" width="5" height="10.8"/>
	<rect x="124.7" y="105.4" class="st1" width="5" height="2.6"/>
	<rect x="105.4" y="110.8" class="st1" width="5" height="10.8"/>
	<rect x="105.4" y="105.4" class="st1" width="5" height="2.6"/>
	<rect x="86" y="86.3" class="st1" width="5" height="10.8"/>
	<rect x="86" y="80.8" class="st1" width="5" height="2.6"/>
	<rect x="66.8" y="86.3" class="st1" width="5" height="10.8"/>
	<rect x="66.8" y="80.8" class="st1" width="5" height="2.6"/>
	<rect x="47.4" y="86.3" class="st1" width="5" height="10.8"/>
	<rect x="47.4" y="80.8" class="st1" width="5" height="2.6"/>
	<rect x="28.1" y="86.3" class="st1" width="5" height="10.8"/>
	<rect x="28.1" y="80.8" class="st1" width="5" height="2.6"/>
	<rect x="8.9" y="86.3" class="st1" width="5" height="10.8"/>
	<rect x="8.9" y="80.8" class="st1" width="5" height="2.6"/>
	<rect x="47.4" y="110.8" class="st1" width="5" height="10.8"/>
	<rect x="47.4" y="105.4" class="st1" width="5" height="2.6"/>
	<rect x="28.1" y="110.8" class="st1" width="5" height="10.8"/>
	<rect x="28.1" y="105.4" class="st1" width="5" height="2.6"/>
	<rect x="8.9" y="110.8" class="st1" width="5" height="10.8"/>
	<rect x="8.9" y="105.4" class="st1" width="5" height="2.6"/>
	<polygon class="st2" points="126.6,58.4 11.4,58.4 1,74.8 137,74.8 	"/>
	<line class="st2" x1="9.3" y1="61.7" x2="128.1" y2="61.7"/>
	<line class="st2" x1="7.2" y1="65" x2="130.8" y2="65"/>
	<line class="st2" x1="5.3" y1="68.2" x2="132.5" y2="68.2"/>
	<line class="st2" x1="3.6" y1="71.5" x2="134.4" y2="71.5"/>
</g>
<rect x="296" y="112.9" class="st1" width="1" height="1"/>
<rect x="293.2" y="109.9" class="st1" width="1" height="1"/>
<rect x="295.1" y="105.5" class="st1" width="1" height="1"/>
<rect x="273.9" y="111.6" class="st1" width="1" height="1"/>
<rect x="280.8" y="104.8" class="st1" width="1" height="1"/>
<rect x="278.8" y="108.7" class="st1" width="1" height="1"/>
<rect x="272.9" y="102.9" class="st1" width="1" height="1"/>
<g>
	<path class="st1" d="M276.9,96.9c3.6,0,6.6,4.4,6.6,9.9c0,5.5-3,9.9-6.6,9.9c-3.6,0-6.6-4.4-6.6-9.9
		C270.3,101.3,273.2,96.9,276.9,96.9 M276.9,96.1c-4.1,0-7.4,4.8-7.4,10.6c0,5.9,3.3,10.6,7.4,10.6c4.1,0,7.4-4.8,7.4-10.6
		C284.2,100.9,280.9,96.1,276.9,96.1L276.9,96.1z"/>
</g>
<g>
	<path class="st1" d="M295.5,96.9c1.2,0.8,3.2,10.1,3.2,16.4c0,5.4-1.4,5.4-3.2,5.4c-1.8,0-3.2,0-3.2-5.4
		C292.2,107,294.2,97.7,295.5,96.9 M295.5,96.1c-2,0-4,11.3-4,17.2s1.8,6.1,4,6.1c2.2,0,4-0.3,4-6.1S297.5,96.1,295.5,96.1
		L295.5,96.1z"/>
</g>
<g>
	<path class="st1" d="M286.6,112.5c0.7,0,2.2,3.1,2.2,6c0,1.9-0.8,3-2.2,3s-2.2-1.1-2.2-3C284.4,115.6,286,112.5,286.6,112.5
		 M286.6,111.7c-1.5,0-3,4.1-3,6.8c0,2.7,1.3,3.8,3,3.8c1.7,0,3-1.1,3-3.8C289.6,115.8,288.1,111.7,286.6,111.7L286.6,111.7z"/>
</g>
<line class="st0" x1="276.8" y1="113.2" x2="276.8" y2="126.3"/>
<line class="st0" x1="295.5" y1="117.3" x2="295.5" y2="126.3"/>
<line class="st0" x1="286.6" y1="121.9" x2="286.6" y2="126.3"/>
</svg>
