<?xml version="1.0" encoding="utf-8"?>
<!-- Generator: Adobe Illustrator 21.0.0, SVG Export Plug-In . SVG Version: 6.00 Build 0)  -->
<svg version="1.1" id="Layer_1" xmlns="http://www.w3.org/2000/svg" xmlns:xlink="http://www.w3.org/1999/xlink" x="0px" y="0px"
	 viewBox="0 0 300 127.4" style="enable-background:new 0 0 300 127.4;" xml:space="preserve">
<style type="text/css">
	.st0{fill:#0559A2;}
	.st1{fill:none;stroke:#0559A2;stroke-width:0.75;stroke-miterlimit:10;}
	.st2{fill:#FFFFFF;stroke:#0559A2;stroke-width:0.75;stroke-miterlimit:10;}
	.st3{fill:#FFFFFF;}
</style>
<g>
	<path class="st0" d="M126.1,110.8h-11.7c0,0,0-13.5,0-16.1c0-1.9,1.1-6.4,6-6.4s6,4.2,6,6.4C126.1,96.2,126.1,110.8,126.1,110.8z"
		/>
	<rect x="80.2" y="56.6" class="st1" width="80" height="63.9"/>
	<rect x="160.2" y="92.5" class="st1" width="80" height="8.8"/>
	<rect x="160.2" y="101.3" class="st1" width="80" height="19.1"/>
	<g>
		<rect x="139.7" y="42.8" class="st2" width="3.1" height="7.2"/>
		<rect x="139.3" y="40.2" class="st2" width="4.2" height="2.6"/>
	</g>
	<g>
		<rect x="98.9" y="42.8" class="st2" width="3.1" height="7.2"/>
		<rect x="98.4" y="40.2" class="st2" width="4.2" height="2.6"/>
	</g>
	<g>
		<rect x="118.7" y="23.9" class="st2" width="3.1" height="7.2"/>
		<rect x="118.2" y="21.4" class="st2" width="4.2" height="2.6"/>
	</g>
	<polygon class="st2" points="90.7,56.6 120.1,27.2 149.7,56.6 	"/>
	<polygon class="st1" points="96.1,54.7 120.1,30.7 144.2,54.7 	"/>
	<rect x="110.1" y="110.5" class="st3" width="20.3" height="15.1"/>
	<line class="st1" x1="110" y1="110.8" x2="130.4" y2="110.8"/>
	<line class="st1" x1="110" y1="113.9" x2="130.4" y2="113.9"/>
	<line class="st1" x1="110" y1="116.8" x2="130.4" y2="116.8"/>
	<line class="st1" x1="110" y1="119.8" x2="130.4" y2="119.8"/>
	<line class="st1" x1="110" y1="122.7" x2="130.4" y2="122.7"/>
	<polyline class="st1" points="160.2,101.3 144.2,101.3 130.4,110.8 130.4,125.8 110,125.8 	"/>
	<rect x="141.4" y="83.2" class="st2" width="8.5" height="13.8"/>
	<rect x="91" y="83.2" class="st2" width="8.5" height="13.8"/>
	<polyline class="st1" points="160.2,92.5 144.2,92.5 130.7,101.7 130.7,110.8 	"/>
	<line class="st1" x1="132.8" y1="100.4" x2="132.8" y2="109.1"/>
	<line class="st1" x1="130.7" y1="101.7" x2="130.7" y2="110.5"/>
	<line class="st1" x1="134.9" y1="98.6" x2="134.9" y2="107.6"/>
	<line class="st1" x1="137.2" y1="97.3" x2="137.2" y2="106.3"/>
	<line class="st1" x1="139.3" y1="96.2" x2="139.3" y2="104.7"/>
	<line class="st1" x1="141.4" y1="94.4" x2="141.4" y2="103.4"/>
	<line class="st1" x1="143.4" y1="93.1" x2="143.4" y2="102.1"/>
	<line class="st1" x1="145.5" y1="92.5" x2="145.5" y2="101.5"/>
	<line class="st1" x1="147.6" y1="92.5" x2="147.6" y2="101.5"/>
	<g>
		<path class="st1" d="M156.2,120.5h-16.6c0,0,0-5.5,0-7.9c0-1.9,1.6-8,8.2-8c6.6,0,8.2,5.8,8.2,8
			C156.2,114,156.2,120.5,156.2,120.5z"/>
		<line class="st1" x1="143.6" y1="105.7" x2="143.6" y2="120.5"/>
		<line class="st1" x1="156.2" y1="112" x2="139.6" y2="112"/>
		<line class="st1" x1="154.7" y1="108.1" x2="141.4" y2="108.1"/>
		<line class="st1" x1="156.2" y1="116.1" x2="139.6" y2="116.1"/>
		<line class="st1" x1="147.6" y1="104.6" x2="147.6" y2="120.5"/>
		<line class="st1" x1="151.8" y1="105.7" x2="151.8" y2="120.5"/>
	</g>
	<line class="st1" x1="149.7" y1="92.5" x2="149.7" y2="101.5"/>
	<line class="st1" x1="151.8" y1="92.5" x2="151.8" y2="101.5"/>
	<line class="st1" x1="154.1" y1="92.5" x2="154.1" y2="101.5"/>
	<line class="st1" x1="156.2" y1="92.5" x2="156.2" y2="101.5"/>
	<line class="st1" x1="158.2" y1="92.5" x2="158.2" y2="101.5"/>
	<line class="st1" x1="158.2" y1="92.5" x2="158.2" y2="101.5"/>
	<line class="st1" x1="162.4" y1="92.5" x2="162.4" y2="101.5"/>
	<line class="st1" x1="164.5" y1="92.5" x2="164.5" y2="101.5"/>
	<line class="st1" x1="166.6" y1="92.5" x2="166.6" y2="101.5"/>
	<line class="st1" x1="168.9" y1="92.5" x2="168.9" y2="101.5"/>
	<line class="st1" x1="168.9" y1="92.5" x2="168.9" y2="101.5"/>
	<line class="st1" x1="171" y1="92.5" x2="171" y2="101.5"/>
	<line class="st1" x1="173" y1="92.5" x2="173" y2="101.5"/>
	<line class="st1" x1="175.1" y1="92.5" x2="175.1" y2="101.5"/>
	<line class="st1" x1="177.2" y1="92.5" x2="177.2" y2="101.5"/>
	<line class="st1" x1="179.3" y1="92.5" x2="179.3" y2="101.5"/>
	<line class="st1" x1="179.3" y1="92.5" x2="179.3" y2="101.5"/>
	<line class="st1" x1="181.4" y1="92.5" x2="181.4" y2="101.5"/>
	<line class="st1" x1="183.5" y1="92.5" x2="183.5" y2="101.5"/>
	<line class="st1" x1="185.8" y1="92.5" x2="185.8" y2="101.5"/>
	<line class="st1" x1="187.9" y1="92.5" x2="187.9" y2="101.5"/>
	<line class="st1" x1="189.9" y1="92.5" x2="189.9" y2="101.5"/>
	<line class="st1" x1="189.9" y1="92.5" x2="189.9" y2="101.5"/>
	<line class="st1" x1="192" y1="92.5" x2="192" y2="101.5"/>
	<line class="st1" x1="194.1" y1="92.5" x2="194.1" y2="101.5"/>
	<line class="st1" x1="196.2" y1="92.5" x2="196.2" y2="101.5"/>
	<line class="st1" x1="198.3" y1="92.5" x2="198.3" y2="101.5"/>
	<line class="st1" x1="200.4" y1="92.5" x2="200.4" y2="101.5"/>
	<line class="st1" x1="200.4" y1="92.5" x2="200.4" y2="101.5"/>
	<line class="st1" x1="202.7" y1="92.5" x2="202.7" y2="101.5"/>
	<line class="st1" x1="204.7" y1="92.5" x2="204.7" y2="101.5"/>
	<line class="st1" x1="206.8" y1="92.5" x2="206.8" y2="101.5"/>
	<line class="st1" x1="208.9" y1="92.5" x2="208.9" y2="101.5"/>
	<line class="st1" x1="211" y1="92.5" x2="211" y2="101.5"/>
	<line class="st1" x1="211" y1="92.5" x2="211" y2="101.5"/>
	<line class="st1" x1="213.1" y1="92.5" x2="213.1" y2="101.5"/>
	<line class="st1" x1="215.2" y1="92.5" x2="215.2" y2="101.5"/>
	<line class="st1" x1="217.5" y1="92.5" x2="217.5" y2="101.5"/>
	<line class="st1" x1="219.5" y1="92.5" x2="219.5" y2="101.5"/>
	<line class="st1" x1="221.6" y1="92.5" x2="221.6" y2="101.5"/>
	<line class="st1" x1="221.6" y1="92.5" x2="221.6" y2="101.5"/>
	<line class="st1" x1="223.7" y1="92.5" x2="223.7" y2="101.5"/>
	<line class="st1" x1="225.8" y1="92.5" x2="225.8" y2="101.5"/>
	<line class="st1" x1="227.9" y1="92.5" x2="227.9" y2="101.5"/>
	<line class="st1" x1="230" y1="92.5" x2="230" y2="101.5"/>
	<line class="st1" x1="232.1" y1="92.5" x2="232.1" y2="101.5"/>
	<line class="st1" x1="232.1" y1="92.5" x2="232.1" y2="101.5"/>
	<line class="st1" x1="234.4" y1="92.5" x2="234.4" y2="101.5"/>
	<line class="st1" x1="236.4" y1="92.5" x2="236.4" y2="101.5"/>
	<line class="st1" x1="238.5" y1="92.5" x2="238.5" y2="101.5"/>
	<g>
		<polyline class="st1" points="80.2,101.3 96.1,101.3 110.1,110.8 110.1,126.3 		"/>
		<polyline class="st1" points="80.2,92.5 96.1,92.5 109.7,101.7 109.7,110.8 		"/>
		<line class="st1" x1="107.6" y1="100.4" x2="107.6" y2="109.1"/>
		<line class="st1" x1="109.7" y1="101.7" x2="109.7" y2="110.5"/>
		<line class="st1" x1="105.5" y1="98.6" x2="105.5" y2="107.6"/>
		<line class="st1" x1="103.4" y1="97.3" x2="103.4" y2="106.3"/>
		<line class="st1" x1="101.3" y1="96.2" x2="101.3" y2="104.7"/>
		<line class="st1" x1="99" y1="94.4" x2="99" y2="103.4"/>
		<line class="st1" x1="96.9" y1="93.1" x2="96.9" y2="102.1"/>
		<line class="st1" x1="94.9" y1="92.5" x2="94.9" y2="101.5"/>
		<line class="st1" x1="92.8" y1="92.5" x2="92.8" y2="101.5"/>
		<line class="st1" x1="90.7" y1="92.5" x2="90.7" y2="101.5"/>
		<line class="st1" x1="88.6" y1="92.5" x2="88.6" y2="101.5"/>
		<line class="st1" x1="86.5" y1="92.5" x2="86.5" y2="101.5"/>
		<line class="st1" x1="84.4" y1="92.5" x2="84.4" y2="101.5"/>
		<line class="st1" x1="82.1" y1="92.5" x2="82.1" y2="101.5"/>
	</g>
	<rect x="0.6" y="92.5" class="st1" width="80" height="8.8"/>
	<rect x="0.6" y="101.3" class="st1" width="80" height="19.1"/>
	<polyline class="st1" points="80.5,101.3 96.5,101.3 110.5,110.7 110.5,125.6 130.7,125.6 	"/>
	<polyline class="st1" points="80.5,92.5 96.5,92.5 110,101.5 110,110.7 	"/>
	<line class="st1" x1="78.3" y1="92.5" x2="78.3" y2="101.5"/>
	<line class="st1" x1="76.2" y1="92.5" x2="76.2" y2="101.5"/>
	<line class="st1" x1="74.1" y1="92.5" x2="74.1" y2="101.5"/>
	<line class="st1" x1="72" y1="92.5" x2="72" y2="101.5"/>
	<line class="st1" x1="72" y1="92.5" x2="72" y2="101.5"/>
	<line class="st1" x1="69.9" y1="92.5" x2="69.9" y2="101.5"/>
	<line class="st1" x1="67.8" y1="92.5" x2="67.8" y2="101.5"/>
	<line class="st1" x1="65.7" y1="92.5" x2="65.7" y2="101.5"/>
	<line class="st1" x1="63.5" y1="92.5" x2="63.5" y2="101.5"/>
	<line class="st1" x1="61.4" y1="92.5" x2="61.4" y2="101.5"/>
	<line class="st1" x1="61.4" y1="92.5" x2="61.4" y2="101.5"/>
	<line class="st1" x1="59.3" y1="92.5" x2="59.3" y2="101.5"/>
	<line class="st1" x1="57.2" y1="92.5" x2="57.2" y2="101.5"/>
	<line class="st1" x1="55.1" y1="92.5" x2="55.1" y2="101.5"/>
	<line class="st1" x1="53" y1="92.5" x2="53" y2="101.5"/>
	<line class="st1" x1="50.9" y1="92.5" x2="50.9" y2="101.5"/>
	<line class="st1" x1="50.9" y1="92.5" x2="50.9" y2="101.5"/>
	<line class="st1" x1="48.7" y1="92.5" x2="48.7" y2="101.5"/>
	<line class="st1" x1="46.6" y1="92.5" x2="46.6" y2="101.5"/>
	<line class="st1" x1="44.5" y1="92.5" x2="44.5" y2="101.5"/>
	<line class="st1" x1="42.4" y1="92.5" x2="42.4" y2="101.5"/>
	<line class="st1" x1="40.3" y1="92.5" x2="40.3" y2="101.5"/>
	<line class="st1" x1="40.3" y1="92.5" x2="40.3" y2="101.5"/>
	<line class="st1" x1="38.2" y1="92.5" x2="38.2" y2="101.5"/>
	<line class="st1" x1="36.1" y1="92.5" x2="36.1" y2="101.5"/>
	<line class="st1" x1="34" y1="92.5" x2="34" y2="101.5"/>
	<line class="st1" x1="31.8" y1="92.5" x2="31.8" y2="101.5"/>
	<line class="st1" x1="29.7" y1="92.5" x2="29.7" y2="101.5"/>
	<line class="st1" x1="29.7" y1="92.5" x2="29.7" y2="101.5"/>
	<line class="st1" x1="27.6" y1="92.5" x2="27.6" y2="101.5"/>
	<line class="st1" x1="25.5" y1="92.5" x2="25.5" y2="101.5"/>
	<line class="st1" x1="23.4" y1="92.5" x2="23.4" y2="101.5"/>
	<line class="st1" x1="21.3" y1="92.5" x2="21.3" y2="101.5"/>
	<line class="st1" x1="19.2" y1="92.5" x2="19.2" y2="101.5"/>
	<line class="st1" x1="19.2" y1="92.5" x2="19.2" y2="101.5"/>
	<line class="st1" x1="17.1" y1="92.5" x2="17.1" y2="101.5"/>
	<line class="st1" x1="14.9" y1="92.5" x2="14.9" y2="101.5"/>
	<line class="st1" x1="12.8" y1="92.5" x2="12.8" y2="101.5"/>
	<line class="st1" x1="10.7" y1="92.5" x2="10.7" y2="101.5"/>
	<line class="st1" x1="8.6" y1="92.5" x2="8.6" y2="101.5"/>
	<line class="st1" x1="8.6" y1="92.5" x2="8.6" y2="101.5"/>
	<line class="st1" x1="6.5" y1="92.5" x2="6.5" y2="101.5"/>
	<line class="st1" x1="4.4" y1="92.5" x2="4.4" y2="101.5"/>
	<line class="st1" x1="2.3" y1="92.5" x2="2.3" y2="101.5"/>
	<rect x="63.6" y="101.3" class="st1" width="2.1" height="18.8"/>
	<rect x="46.7" y="101.3" class="st1" width="2.1" height="18.8"/>
	<rect x="29.8" y="101.3" class="st1" width="2.1" height="18.8"/>
	<rect x="13" y="101.3" class="st1" width="2.1" height="18.8"/>
	<rect x="62.5" y="101.7" class="st2" width="4.2" height="1.3"/>
	<rect x="79.6" y="101.3" class="st2" width="2.1" height="18.8"/>
	<rect x="78.4" y="101.7" class="st2" width="4.2" height="1.3"/>
	<rect x="45.6" y="101.7" class="st2" width="4.2" height="1.3"/>
	<rect x="28.7" y="101.7" class="st2" width="4.2" height="1.3"/>
	<rect x="11.8" y="101.7" class="st2" width="4.2" height="1.3"/>
	<rect x="175.1" y="101.5" class="st1" width="2.1" height="18.8"/>
	<rect x="192" y="101.5" class="st1" width="2.1" height="18.8"/>
	<rect x="208.9" y="101.5" class="st1" width="2.1" height="18.8"/>
	<rect x="225.8" y="101.5" class="st1" width="2.1" height="18.8"/>
	<g>
		<rect x="128.8" y="119.7" class="st2" width="3.1" height="7.2"/>
		<rect x="128.3" y="117.1" class="st2" width="4.2" height="2.6"/>
	</g>
	<g>
		<rect x="118.7" y="103.3" class="st2" width="3.1" height="7.2"/>
		<rect x="118.2" y="100.9" class="st2" width="4.2" height="2.6"/>
	</g>
	<rect x="174.2" y="101.8" class="st2" width="4.2" height="1.3"/>
	<rect x="159.2" y="101.5" class="st2" width="2.1" height="18.8"/>
	<rect x="158.1" y="101.8" class="st2" width="4.2" height="1.3"/>
	<rect x="191.1" y="101.8" class="st2" width="4.2" height="1.3"/>
	<rect x="208" y="101.8" class="st2" width="4.2" height="1.3"/>
	<rect x="224.9" y="101.8" class="st2" width="4.2" height="1.3"/>
	<rect x="108.5" y="119.7" class="st2" width="3.1" height="7.2"/>
	<rect x="108" y="117.1" class="st2" width="4.2" height="2.6"/>
	<g>
		<path class="st1" d="M101,120.5H84.6c0,0,0-5.5,0-7.9c0-1.9,1.6-8,8.2-8s8.2,5.8,8.2,8C101,114,101,120.5,101,120.5z"/>
		<line class="st1" x1="88.6" y1="105.7" x2="88.6" y2="120.5"/>
		<line class="st1" x1="101" y1="112" x2="84.6" y2="112"/>
		<line class="st1" x1="99.7" y1="108.1" x2="86.2" y2="108.1"/>
		<line class="st1" x1="101" y1="116.1" x2="84.6" y2="116.1"/>
		<line class="st1" x1="92.6" y1="104.6" x2="92.6" y2="120.5"/>
		<line class="st1" x1="96.8" y1="105.7" x2="96.8" y2="120.5"/>
	</g>
	<rect x="141.4" y="64" class="st2" width="8.5" height="13.8"/>
	<line class="st1" x1="141.4" y1="64" x2="141.4" y2="77.8"/>
	<g>
		<polygon class="st1" points="149.7,77.8 154.1,77.8 154.1,64 149.7,64 149.7,65.5 		"/>
		<line class="st1" x1="154.1" y1="65.3" x2="149.7" y2="65.3"/>
		<line class="st1" x1="154.1" y1="66.7" x2="149.7" y2="66.7"/>
		<line class="st1" x1="154.1" y1="68" x2="149.7" y2="68"/>
		<line class="st1" x1="154.1" y1="69.5" x2="149.7" y2="69.5"/>
		<line class="st1" x1="154.1" y1="70.9" x2="149.7" y2="70.9"/>
		<line class="st1" x1="154.1" y1="72.2" x2="149.7" y2="72.2"/>
		<line class="st1" x1="154.1" y1="73.7" x2="149.7" y2="73.7"/>
		<line class="st1" x1="154.1" y1="75.1" x2="149.7" y2="75.1"/>
		<line class="st1" x1="154.1" y1="76.4" x2="149.7" y2="76.4"/>
	</g>
	<g>
		<polygon class="st1" points="137.2,77.8 141.4,77.8 141.4,64 137.2,64 137.2,65.5 		"/>
		<line class="st1" x1="141.4" y1="65.3" x2="137.2" y2="65.3"/>
		<line class="st1" x1="141.4" y1="66.7" x2="137.2" y2="66.7"/>
		<line class="st1" x1="141.4" y1="68" x2="137.2" y2="68"/>
		<line class="st1" x1="141.4" y1="69.5" x2="137.2" y2="69.5"/>
		<line class="st1" x1="141.4" y1="70.9" x2="137.2" y2="70.9"/>
		<line class="st1" x1="141.4" y1="72.2" x2="137.2" y2="72.2"/>
		<line class="st1" x1="141.4" y1="73.7" x2="137.2" y2="73.7"/>
		<line class="st1" x1="141.4" y1="75.1" x2="137.2" y2="75.1"/>
		<line class="st1" x1="141.4" y1="76.4" x2="137.2" y2="76.4"/>
	</g>
	<rect x="90.7" y="64" class="st2" width="8.5" height="13.8"/>
	<rect x="115.9" y="64" class="st1" width="8.5" height="18.2"/>
	<g>
		<rect x="112.7" y="74.3" class="st2" width="14.5" height="8.8"/>
		<line class="st1" x1="118.5" y1="74.5" x2="118.5" y2="83.3"/>
		<line class="st1" x1="118.5" y1="74.5" x2="118.5" y2="83.3"/>
		<line class="st1" x1="121.4" y1="74.5" x2="121.4" y2="83.3"/>
		<line class="st1" x1="124.5" y1="74.5" x2="124.5" y2="83.3"/>
		<line class="st1" x1="112.7" y1="74.5" x2="112.7" y2="83.3"/>
		<line class="st1" x1="112.7" y1="74.5" x2="112.7" y2="83.3"/>
		<line class="st1" x1="115.6" y1="74.5" x2="115.6" y2="83.3"/>
	</g>
	<line class="st1" x1="90.7" y1="64" x2="90.7" y2="77.8"/>
	<g>
		<polygon class="st1" points="99,77.8 103.4,77.8 103.4,64 99,64 99,65.5 		"/>
		<line class="st1" x1="103.4" y1="65.3" x2="99" y2="65.3"/>
		<line class="st1" x1="103.4" y1="66.7" x2="99" y2="66.7"/>
		<line class="st1" x1="103.4" y1="68" x2="99" y2="68"/>
		<line class="st1" x1="103.4" y1="69.5" x2="99" y2="69.5"/>
		<line class="st1" x1="103.4" y1="70.9" x2="99" y2="70.9"/>
		<line class="st1" x1="103.4" y1="72.2" x2="99" y2="72.2"/>
		<line class="st1" x1="103.4" y1="73.7" x2="99" y2="73.7"/>
		<line class="st1" x1="103.4" y1="75.1" x2="99" y2="75.1"/>
		<line class="st1" x1="103.4" y1="76.4" x2="99" y2="76.4"/>
	</g>
	<g>
		<polygon class="st1" points="86.5,77.8 90.7,77.8 90.7,64 86.5,64 86.5,65.5 		"/>
		<line class="st1" x1="90.7" y1="65.3" x2="86.5" y2="65.3"/>
		<line class="st1" x1="90.7" y1="66.7" x2="86.5" y2="66.7"/>
		<line class="st1" x1="90.7" y1="68" x2="86.5" y2="68"/>
		<line class="st1" x1="90.7" y1="69.5" x2="86.5" y2="69.5"/>
		<line class="st1" x1="90.7" y1="70.9" x2="86.5" y2="70.9"/>
		<line class="st1" x1="90.7" y1="72.2" x2="86.5" y2="72.2"/>
		<line class="st1" x1="90.7" y1="73.7" x2="86.5" y2="73.7"/>
		<line class="st1" x1="90.7" y1="75.1" x2="86.5" y2="75.1"/>
		<line class="st1" x1="90.7" y1="76.4" x2="86.5" y2="76.4"/>
	</g>
	<path class="st2" d="M124,97.8c0,2.1-1.8,3.9-3.9,3.9s-3.9-1.8-3.9-3.9C118.7,97.8,120.8,97.8,124,97.8z"/>
	<ellipse class="st1" cx="120.6" cy="45.3" rx="4" ry="6"/>
</g>
<rect x="296.2" y="106.9" class="st0" width="1" height="1"/>
<rect x="293.4" y="103.9" class="st0" width="1" height="1"/>
<rect x="295.3" y="99.5" class="st0" width="1" height="1"/>
<rect x="274.2" y="105.6" class="st0" width="1" height="1"/>
<rect x="281" y="98.8" class="st0" width="1" height="1"/>
<rect x="279.1" y="102.7" class="st0" width="1" height="1"/>
<rect x="273.1" y="96.9" class="st0" width="1" height="1"/>
<g>
	<path class="st0" d="M277.1,90.9c3.6,0,6.6,4.4,6.6,9.9c0,5.5-3,9.9-6.6,9.9c-3.6,0-6.6-4.4-6.6-9.9
		C270.5,95.3,273.5,90.9,277.1,90.9 M277.1,90.1c-4.1,0-7.4,4.8-7.4,10.6c0,5.9,3.3,10.6,7.4,10.6c4.1,0,7.4-4.8,7.4-10.6
		C284.4,94.9,281.2,90.1,277.1,90.1L277.1,90.1z"/>
</g>
<g>
	<path class="st0" d="M295.7,90.9c1.2,0.8,3.2,10.1,3.2,16.4c0,5.4-1.4,5.4-3.2,5.4c-1.8,0-3.2,0-3.2-5.4
		C292.4,101,294.4,91.7,295.7,90.9 M295.7,90.1c-2,0-4,11.3-4,17.2c0,5.9,1.8,6.1,4,6.1s4-0.3,4-6.1
		C299.7,101.4,297.7,90.1,295.7,90.1L295.7,90.1z"/>
</g>
<g>
	<path class="st0" d="M286.8,106.5c0.7,0,2.2,3.1,2.2,6c0,1.9-0.8,3-2.2,3s-2.2-1.1-2.2-3C284.6,109.6,286.2,106.5,286.8,106.5
		 M286.8,105.7c-1.5,0-3,4.1-3,6.8s1.3,3.8,3,3.8c1.7,0,3-1.1,3-3.8S288.3,105.7,286.8,105.7L286.8,105.7z"/>
</g>
<line class="st1" x1="277" y1="107.2" x2="277" y2="120.3"/>
<line class="st1" x1="295.7" y1="111.3" x2="295.7" y2="120.3"/>
<line class="st1" x1="286.8" y1="115.9" x2="286.8" y2="120.3"/>
</svg>
