<?xml version="1.0" encoding="utf-8"?>
<!-- Generator: Adobe Illustrator 21.0.0, SVG Export Plug-In . SVG Version: 6.00 Build 0)  -->
<svg version="1.1" id="Layer_1" xmlns="http://www.w3.org/2000/svg" xmlns:xlink="http://www.w3.org/1999/xlink" x="0px" y="0px"
	 viewBox="0 0 300 127.4" style="enable-background:new 0 0 300 127.4;" xml:space="preserve">
<style type="text/css">
	.st0{fill:none;stroke:#0559A2;stroke-width:0.75;stroke-miterlimit:10;}
	.st1{fill:#FFFFFF;stroke:#0559A2;stroke-width:0.75;stroke-miterlimit:10;}
	.st2{fill:#0559A2;}
</style>
<g>
	<rect x="158.3" y="90" class="st0" width="40.9" height="23.3"/>
	<rect x="158.3" y="74.2" class="st0" width="40.9" height="11.7"/>
	<rect x="158.3" y="67.2" class="st0" width="40.9" height="7"/>
	<line class="st0" x1="158.3" y1="68.5" x2="199.2" y2="68.5"/>
	<line class="st0" x1="158.3" y1="69.9" x2="199.2" y2="69.9"/>
	<line class="st0" x1="158.3" y1="71.3" x2="199.2" y2="71.3"/>
	<line class="st0" x1="158.3" y1="72.8" x2="199.2" y2="72.8"/>
	<rect x="158.3" y="85.9" class="st0" width="40.9" height="4.3"/>
	<line class="st0" x1="158.3" y1="87.2" x2="199.2" y2="87.2"/>
	<line class="st0" x1="158.3" y1="88.6" x2="199.2" y2="88.6"/>
	<line class="st0" x1="158.3" y1="90" x2="199.2" y2="90"/>
	<rect x="164.3" y="76.1" class="st0" width="6.1" height="9.7"/>
	<rect x="187.4" y="76.1" class="st0" width="6.1" height="9.7"/>
	<rect x="175.9" y="76.1" class="st0" width="6.1" height="9.7"/>
	<rect x="164.3" y="92.9" class="st0" width="6.1" height="9.7"/>
	<rect x="187.4" y="92.9" class="st0" width="6.1" height="9.7"/>
	<rect x="175.9" y="92.9" class="st0" width="6.1" height="9.7"/>
	<rect x="158.3" y="97.7" class="st1" width="40.9" height="4.9"/>
	<rect x="164.3" y="105.3" class="st0" width="6.1" height="9.7"/>
	<rect x="187.4" y="105.3" class="st0" width="6.1" height="9.7"/>
	<rect x="175.9" y="105.3" class="st0" width="6.1" height="9.7"/>
	<rect x="158.3" y="110.2" class="st1" width="40.9" height="4.9"/>
	<rect x="105.7" y="90" class="st0" width="40.9" height="23.3"/>
	<rect x="105.7" y="74.2" class="st0" width="40.9" height="11.7"/>
	<rect x="105.7" y="67.2" class="st0" width="40.9" height="7"/>
	<line class="st0" x1="105.7" y1="68.5" x2="146.6" y2="68.5"/>
	<line class="st0" x1="105.7" y1="69.9" x2="146.6" y2="69.9"/>
	<line class="st0" x1="105.7" y1="71.3" x2="146.6" y2="71.3"/>
	<line class="st0" x1="105.7" y1="72.8" x2="146.6" y2="72.8"/>
	<rect x="105.7" y="85.9" class="st0" width="40.9" height="4.3"/>
	<line class="st0" x1="105.7" y1="87.2" x2="146.6" y2="87.2"/>
	<line class="st0" x1="105.7" y1="88.6" x2="146.6" y2="88.6"/>
	<line class="st0" x1="105.7" y1="90" x2="146.6" y2="90"/>
	<rect x="111.9" y="76.1" class="st0" width="6.1" height="9.7"/>
	<rect x="135" y="76.1" class="st0" width="6.1" height="9.7"/>
	<rect x="123.5" y="76.1" class="st0" width="6.1" height="9.7"/>
	<rect x="111.9" y="92.9" class="st0" width="6.1" height="9.7"/>
	<rect x="135" y="92.9" class="st0" width="6.1" height="9.7"/>
	<rect x="123.5" y="92.9" class="st0" width="6.1" height="9.7"/>
	<rect x="105.7" y="97.7" class="st1" width="40.9" height="4.9"/>
	<rect x="111.9" y="105.3" class="st0" width="6.1" height="9.7"/>
	<rect x="135" y="105.3" class="st0" width="6.1" height="9.7"/>
	<rect x="123.5" y="105.3" class="st0" width="6.1" height="9.7"/>
	<rect x="105.7" y="110.2" class="st1" width="40.9" height="4.9"/>
	<rect x="53.1" y="90" class="st0" width="40.9" height="23.3"/>
	<rect x="53.1" y="74.2" class="st0" width="40.9" height="11.7"/>
	<rect x="53.1" y="67.2" class="st0" width="40.9" height="7"/>
	<line class="st0" x1="53.1" y1="68.5" x2="94" y2="68.5"/>
	<line class="st0" x1="53.1" y1="69.9" x2="94" y2="69.9"/>
	<line class="st0" x1="53.1" y1="71.3" x2="94" y2="71.3"/>
	<line class="st0" x1="53.1" y1="72.8" x2="94" y2="72.8"/>
	<rect x="53.1" y="85.9" class="st0" width="40.9" height="4.3"/>
	<line class="st0" x1="53.1" y1="87.2" x2="94" y2="87.2"/>
	<line class="st0" x1="53.1" y1="88.6" x2="94" y2="88.6"/>
	<line class="st0" x1="53.1" y1="90" x2="94" y2="90"/>
	<rect x="59.3" y="76.1" class="st0" width="6.1" height="9.7"/>
	<rect x="82.4" y="76.1" class="st0" width="6.1" height="9.7"/>
	<rect x="70.9" y="76.1" class="st0" width="6.1" height="9.7"/>
	<rect x="59.3" y="92.9" class="st0" width="6.1" height="9.7"/>
	<rect x="82.4" y="92.9" class="st0" width="6.1" height="9.7"/>
	<rect x="70.9" y="92.9" class="st0" width="6.1" height="9.7"/>
	<rect x="53.1" y="97.7" class="st1" width="40.9" height="4.9"/>
	<rect x="59.3" y="105.3" class="st0" width="6.1" height="9.7"/>
	<rect x="82.4" y="105.3" class="st0" width="6.1" height="9.7"/>
	<rect x="70.9" y="105.3" class="st0" width="6.1" height="9.7"/>
	<rect x="53.1" y="110.2" class="st1" width="40.9" height="4.9"/>
	<rect x="0.5" y="90" class="st0" width="40.9" height="23.3"/>
	<rect x="0.5" y="74.2" class="st0" width="40.9" height="11.7"/>
	<rect x="0.5" y="67.2" class="st0" width="40.9" height="7"/>
	<line class="st0" x1="0.5" y1="68.5" x2="41.4" y2="68.5"/>
	<line class="st0" x1="0.5" y1="69.9" x2="41.4" y2="69.9"/>
	<line class="st0" x1="0.5" y1="71.3" x2="41.4" y2="71.3"/>
	<line class="st0" x1="0.5" y1="72.8" x2="41.4" y2="72.8"/>
	<rect x="0.5" y="85.9" class="st0" width="40.9" height="4.3"/>
	<line class="st0" x1="0.5" y1="87.2" x2="41.4" y2="87.2"/>
	<line class="st0" x1="0.5" y1="88.6" x2="41.4" y2="88.6"/>
	<line class="st0" x1="0.5" y1="90" x2="41.4" y2="90"/>
	<rect x="6.8" y="76.1" class="st0" width="6.1" height="9.7"/>
	<rect x="29.9" y="76.1" class="st0" width="6.1" height="9.7"/>
	<rect x="18.3" y="76.1" class="st0" width="6.1" height="9.7"/>
	<rect x="6.8" y="92.9" class="st0" width="6.1" height="9.7"/>
	<rect x="29.9" y="92.9" class="st0" width="6.1" height="9.7"/>
	<rect x="18.3" y="92.9" class="st0" width="6.1" height="9.7"/>
	<rect x="0.5" y="97.7" class="st1" width="40.9" height="4.9"/>
	<rect x="6.8" y="105.3" class="st0" width="6.1" height="9.7"/>
	<rect x="29.9" y="105.3" class="st0" width="6.1" height="9.7"/>
	<rect x="18.3" y="105.3" class="st0" width="6.1" height="9.7"/>
	<rect x="0.5" y="110.2" class="st1" width="40.9" height="4.9"/>
	<rect x="161.3" y="114.9" class="st1" width="35.4" height="12.2"/>
	<polygon class="st1" points="189,127.2 168.5,127.2 164,113.2 193.4,113.2 	"/>
	<line class="st0" x1="165.6" y1="118.1" x2="191.9" y2="118.1"/>
	<rect x="108.7" y="114.9" class="st1" width="35.4" height="12.2"/>
	<polygon class="st1" points="136.4,127.2 115.9,127.2 111.5,113.2 140.8,113.2 	"/>
	<line class="st0" x1="113" y1="118.1" x2="139.3" y2="118.1"/>
	<rect x="56.1" y="114.9" class="st1" width="35.4" height="12.2"/>
	<polygon class="st1" points="83.8,127.2 63.4,127.2 59,113.2 88.2,113.2 	"/>
	<line class="st0" x1="60.4" y1="118.1" x2="86.7" y2="118.1"/>
	<rect x="3.6" y="114.9" class="st1" width="35.4" height="12.2"/>
	<polygon class="st1" points="31.2,127.2 10.9,127.2 6.4,113.2 35.6,113.2 	"/>
	<line class="st0" x1="8" y1="118.1" x2="34.1" y2="118.1"/>
	<rect x="146.6" y="90" class="st1" width="11.7" height="12.5"/>
	<rect x="94" y="90" class="st1" width="11.7" height="12.5"/>
	<rect x="41.4" y="90" class="st1" width="11.7" height="12.5"/>
</g>
<rect x="296.6" y="114" class="st2" width="1" height="1"/>
<rect x="293.8" y="111" class="st2" width="1" height="1"/>
<rect x="295.7" y="106.6" class="st2" width="1" height="1"/>
<rect x="274.5" y="112.7" class="st2" width="1" height="1"/>
<rect x="281.4" y="105.9" class="st2" width="1" height="1"/>
<rect x="279.4" y="109.8" class="st2" width="1" height="1"/>
<rect x="273.5" y="104" class="st2" width="1" height="1"/>
<g>
	<path class="st2" d="M277.5,98c3.6,0,6.6,4.4,6.6,9.9s-3,9.9-6.6,9.9c-3.6,0-6.6-4.4-6.6-9.9S273.8,98,277.5,98 M277.5,97.2
		c-4.1,0-7.4,4.8-7.4,10.6s3.3,10.6,7.4,10.6c4.1,0,7.4-4.8,7.4-10.6S281.5,97.2,277.5,97.2L277.5,97.2z"/>
</g>
<g>
	<path class="st2" d="M296,98c1.2,0.8,3.2,10.1,3.2,16.4c0,5.4-1.4,5.4-3.2,5.4c-1.8,0-3.2,0-3.2-5.4C292.8,108.1,294.8,98.8,296,98
		 M296,97.2c-2,0-4,11.3-4,17.2s1.8,6.1,4,6.1c2.2,0,4-0.3,4-6.1S298,97.2,296,97.2L296,97.2z"/>
</g>
<g>
	<path class="st2" d="M287.2,113.6c0.7,0,2.2,3.1,2.2,6c0,1.9-0.8,3-2.2,3s-2.2-1.1-2.2-3C285,116.7,286.5,113.6,287.2,113.6
		 M287.2,112.8c-1.5,0-3,4.1-3,6.8c0,2.7,1.3,3.8,3,3.8s3-1.1,3-3.8C290.2,116.9,288.7,112.8,287.2,112.8L287.2,112.8z"/>
</g>
<line class="st0" x1="277.3" y1="114.3" x2="277.3" y2="127.4"/>
<line class="st0" x1="296" y1="118.4" x2="296" y2="127.4"/>
<line class="st0" x1="287.2" y1="123" x2="287.2" y2="127.4"/>
</svg>
