<?xml version="1.0" encoding="utf-8"?>
<!-- Generator: Adobe Illustrator 21.0.0, SVG Export Plug-In . SVG Version: 6.00 Build 0)  -->
<svg version="1.1" id="Layer_1" xmlns="http://www.w3.org/2000/svg" xmlns:xlink="http://www.w3.org/1999/xlink" x="0px" y="0px"
	 viewBox="0 0 300 127.4" style="enable-background:new 0 0 300 127.4;" xml:space="preserve">
<style type="text/css">
	.st0{fill:#E6EDF4;}
	.st1{fill:#FFFFFF;}
	.st2{fill:none;stroke:#0559A2;stroke-width:0.6648;stroke-miterlimit:10;}
	.st3{fill:#FFFFFF;stroke:#0559A2;stroke-width:0.6648;stroke-miterlimit:10;}
	.st4{fill:#0559A2;}
	.st5{opacity:0.3;}
</style>
<rect class="st0" width="300" height="127.4"/>
<g>
	<g id="XMLID_1_">
		<g>
			<path class="st1" d="M138,125.5v0.9h-0.9h-33.9h-0.9v-0.9v-54v-0.9h0.9h33.9h0.9v0.9V125.5z M136.2,124.5V72.3H104v52.2H136.2z"
				/>
			<path class="st1" d="M136.2,72.3v52.2H104V72.3H136.2z M133.4,124.4l-0.1-48.6v-0.8h-0.9h-24.6h-0.9v0.8l0,48.6H133.4z"/>
			<path class="st1" d="M133.3,75.9l0.1,48.6h-26.4l0-48.6v-0.8h0.9h24.6h0.9V75.9z M114.2,100.2c0-1.2-0.9-2.1-2.1-2.1
				c-1.2,0-2.1,0.9-2.1,2.1c0,1.2,0.9,2.1,2.1,2.1C113.3,102.3,114.2,101.4,114.2,100.2z"/>
			<path class="st1" d="M112.1,98.1c1.2,0,2.1,0.9,2.1,2.1c0,1.2-0.9,2.1-2.1,2.1c-1.2,0-2.1-0.9-2.1-2.1
				C110,99,110.9,98.1,112.1,98.1z"/>
		</g>
		<g>
			<polygon class="st2" points="103.2,70.6 137.1,70.6 138,70.6 138,71.5 138,125.5 138,126.4 137.1,126.4 103.2,126.4 102.3,126.4 
				102.3,125.5 102.3,71.5 102.3,70.6 			"/>
			<rect x="104" y="72.3" class="st2" width="32.2" height="52.2"/>
			<polygon class="st2" points="107.8,75.1 132.4,75.1 133.3,75.1 133.3,75.9 133.4,124.4 106.9,124.4 106.9,75.9 106.9,75.1 			"/>
			<path class="st2" d="M112.1,98.1c1.2,0,2.1,0.9,2.1,2.1c0,1.2-0.9,2.1-2.1,2.1c-1.2,0-2.1-0.9-2.1-2.1
				C110,99,110.9,98.1,112.1,98.1z"/>
		</g>
	</g>
</g>
<rect x="141.1" y="82.3" class="st3" width="11.6" height="6.8"/>
<rect x="141.1" y="97.1" class="st3" width="5.1" height="5.1"/>
<rect x="143.1" y="98.6" class="st4" width="1.2" height="2.2"/>
<line class="st2" x1="142.3" y1="84.1" x2="151.1" y2="84.1"/>
<line class="st2" x1="142.3" y1="85.7" x2="146.2" y2="85.7"/>
<line class="st2" x1="147.4" y1="85.7" x2="149.4" y2="85.7"/>
<line class="st2" x1="142.3" y1="87.4" x2="145.6" y2="87.4"/>
<line class="st2" x1="146.7" y1="87.4" x2="151.1" y2="87.4"/>
<g>
	<rect x="356" y="15" class="st4" width="0.6" height="0.6"/>
</g>
<g class="st5">
	<rect x="-18.3" y="39" class="st4" width="0.6" height="0.6"/>
	<rect x="328.9" y="39" class="st4" width="0.6" height="0.6"/>
</g>
<g>
	<rect x="356" y="62.1" class="st4" width="0.6" height="0.6"/>
</g>
<g>
	<rect x="-18.3" y="85.9" class="st4" width="0.6" height="0.6"/>
	<polyline class="st4" points="155.3,85.9 155.9,85.9 155.9,86.5 	"/>
	<rect x="328.9" y="85.9" class="st4" width="0.6" height="0.6"/>
</g>
<g>
	<rect x="356" y="109.2" class="st4" width="0.6" height="0.6"/>
</g>
<g>
	<rect x="97.4" y="134.1" class="st4" width="0.6" height="0.6"/>
	<rect x="155.3" y="134.1" class="st4" width="0.6" height="0.6"/>
	<rect x="213.2" y="134.1" class="st4" width="0.6" height="0.6"/>
	<rect x="271" y="134.1" class="st4" width="0.6" height="0.6"/>
	<rect x="328.9" y="134.1" class="st4" width="0.6" height="0.6"/>
</g>
<path class="st2" d="M300,126.8"/>
<g>
	<rect y="126.7" class="st4" width="300" height="0.7"/>
</g>
</svg>
