<?xml version="1.0" encoding="utf-8"?>
<!-- Generator: Adobe Illustrator 21.0.0, SVG Export Plug-In . SVG Version: 6.00 Build 0)  -->
<svg version="1.1" id="Layer_1" xmlns="http://www.w3.org/2000/svg" xmlns:xlink="http://www.w3.org/1999/xlink" x="0px" y="0px"
	 viewBox="0 0 300 127.4" style="enable-background:new 0 0 300 127.4;" xml:space="preserve">
<style type="text/css">
	.st0{fill:#0559A2;}
	.st1{fill:none;}
	.st2{fill:none;stroke:#0559A2;stroke-width:0.75;stroke-miterlimit:10;}
	.st3{fill:none;stroke:#FFFFFF;stroke-width:0.75;stroke-miterlimit:10;}
</style>
<g>
	<rect x="229.9" y="103.1" class="st0" width="0.9" height="4.7"/>
	<rect x="226.6" y="103.1" class="st0" width="0.9" height="4.7"/>
	<rect x="223.5" y="103.1" class="st0" width="0.9" height="4.7"/>
	<rect x="229.9" y="117.9" class="st0" width="0.9" height="4.7"/>
	<rect x="226.6" y="117.9" class="st0" width="0.9" height="4.7"/>
	<rect x="223.5" y="117.9" class="st0" width="0.9" height="4.7"/>
	<rect x="233.1" y="103.1" class="st0" width="0.9" height="4.7"/>
	<rect x="239.5" y="103.1" class="st0" width="0.9" height="4.7"/>
	<rect x="236.3" y="103.1" class="st0" width="0.9" height="4.7"/>
	<rect x="242.6" y="103.1" class="st0" width="0.9" height="4.7"/>
	<rect x="249.1" y="103.1" class="st0" width="0.9" height="4.7"/>
	<rect x="245.9" y="103.1" class="st0" width="0.9" height="4.7"/>
	<rect x="252.3" y="103.1" class="st0" width="0.9" height="4.7"/>
	<rect x="258.7" y="103.1" class="st0" width="0.9" height="4.7"/>
	<rect x="255.5" y="103.1" class="st0" width="0.9" height="4.7"/>
	<rect x="261.9" y="103.1" class="st0" width="0.9" height="4.7"/>
	<rect x="265.1" y="103.1" class="st0" width="0.9" height="4.7"/>
	<rect x="261.9" y="103.1" class="st0" width="0.9" height="4.7"/>
	<rect x="220.9" y="103.1" class="st0" width="47.8" height="0.9"/>
	<rect x="220.9" y="107.1" class="st0" width="47.8" height="0.9"/>
	<rect x="274.1" y="103.1" class="st0" width="0.9" height="4.7"/>
	<rect x="270.9" y="103.1" class="st0" width="0.9" height="4.7"/>
	<rect x="267.7" y="103.1" class="st0" width="0.9" height="4.7"/>
	<rect x="277.2" y="103.1" class="st0" width="0.9" height="4.7"/>
	<rect x="283.7" y="103.1" class="st0" width="0.9" height="4.7"/>
	<rect x="280.5" y="103.1" class="st0" width="0.9" height="4.7"/>
	<rect x="286.9" y="103.1" class="st0" width="0.9" height="4.7"/>
	<rect x="293.4" y="103.1" class="st0" width="0.9" height="4.7"/>
	<rect x="290.1" y="103.1" class="st0" width="0.9" height="4.7"/>
	<rect x="296.5" y="103.1" class="st0" width="0.9" height="4.7"/>
	<rect x="299.7" y="103.1" class="st0" width="0.9" height="4.7"/>
	<rect x="265.1" y="103.1" class="st0" width="35.9" height="0.9"/>
	<rect x="265.1" y="107.1" class="st0" width="35.9" height="0.9"/>
	<rect x="229.9" y="99.1" class="st0" width="0.9" height="4.7"/>
	<line class="st1" x1="227.5" y1="103.8" x2="226.6" y2="103.8"/>
	<line class="st1" x1="226.6" y1="99.1" x2="227.5" y2="99.1"/>
	<line class="st1" x1="224.4" y1="103.8" x2="223.5" y2="103.8"/>
	<line class="st1" x1="223.5" y1="99.1" x2="224.4" y2="99.1"/>
	<rect x="233.1" y="99.1" class="st0" width="0.9" height="4.7"/>
	<line class="st1" x1="240.4" y1="103.8" x2="239.5" y2="103.8"/>
	<line class="st1" x1="239.5" y1="99.1" x2="240.4" y2="99.1"/>
	<rect x="236.3" y="99.1" class="st0" width="0.9" height="4.7"/>
	<line class="st1" x1="243.6" y1="103.8" x2="242.6" y2="103.8"/>
	<line class="st1" x1="242.6" y1="99.1" x2="243.6" y2="99.1"/>
	<rect x="249.1" y="99.1" class="st0" width="0.9" height="4.7"/>
	<line class="st1" x1="246.7" y1="103.8" x2="245.9" y2="103.8"/>
	<line class="st1" x1="245.9" y1="99.1" x2="246.7" y2="99.1"/>
	<rect x="252.3" y="99.1" class="st0" width="0.9" height="4.7"/>
	<line class="st1" x1="259.6" y1="103.8" x2="258.7" y2="103.8"/>
	<line class="st1" x1="258.7" y1="99.1" x2="259.6" y2="99.1"/>
	<rect x="255.5" y="99.1" class="st0" width="0.9" height="4.7"/>
	<line class="st1" x1="262.7" y1="103.8" x2="261.9" y2="103.8"/>
	<line class="st1" x1="261.9" y1="99.1" x2="262.7" y2="99.1"/>
	<line class="st1" x1="266" y1="103.8" x2="265.1" y2="103.8"/>
	<line class="st1" x1="265.1" y1="99.1" x2="266" y2="99.1"/>
	<line class="st1" x1="262.7" y1="103.8" x2="261.9" y2="103.8"/>
	<line class="st1" x1="261.9" y1="99.1" x2="262.7" y2="99.1"/>
	<rect x="229.9" y="99.1" class="st0" width="7.2" height="0.9"/>
	<rect x="249.1" y="99.1" class="st0" width="7.2" height="0.9"/>
	<rect x="267.7" y="99.1" class="st0" width="7.2" height="0.9"/>
	<rect x="286.9" y="99.1" class="st0" width="7.2" height="0.9"/>
	<rect x="220.9" y="103.1" class="st0" width="47.8" height="0.9"/>
	<rect x="187.4" y="103.1" class="st0" width="0.9" height="4.7"/>
	<rect x="190.5" y="103.1" class="st0" width="0.9" height="4.7"/>
	<rect x="196.9" y="103.1" class="st0" width="0.9" height="4.7"/>
	<rect x="193.8" y="103.1" class="st0" width="0.9" height="4.7"/>
	<rect x="200.1" y="103.1" class="st0" width="0.9" height="4.7"/>
	<rect x="206.5" y="103.1" class="st0" width="0.9" height="4.7"/>
	<rect x="203.3" y="103.1" class="st0" width="0.9" height="4.7"/>
	<rect x="209.8" y="103.1" class="st0" width="0.9" height="4.7"/>
	<rect x="212.9" y="103.1" class="st0" width="0.9" height="4.7"/>
	<rect x="187.5" y="107.1" class="st0" width="26.4" height="0.9"/>
	<rect x="187.4" y="99.1" class="st0" width="0.9" height="4.7"/>
	<rect x="190.5" y="99.1" class="st0" width="0.9" height="4.7"/>
	<line class="st1" x1="197.9" y1="103.8" x2="196.9" y2="103.8"/>
	<line class="st1" x1="196.9" y1="99.1" x2="197.9" y2="99.1"/>
	<rect x="193.8" y="99.1" class="st0" width="0.9" height="4.7"/>
	<line class="st1" x1="201" y1="103.8" x2="200.1" y2="103.8"/>
	<line class="st1" x1="200.1" y1="99.1" x2="201" y2="99.1"/>
	<rect x="206.5" y="99.1" class="st0" width="0.9" height="4.7"/>
	<line class="st1" x1="204.2" y1="103.8" x2="203.3" y2="103.8"/>
	<line class="st1" x1="203.3" y1="99.1" x2="204.2" y2="99.1"/>
	<rect x="209.8" y="99.1" class="st0" width="0.9" height="4.7"/>
	<rect x="209.8" y="114.2" class="st0" width="0.9" height="7.9"/>
	<rect x="212.9" y="99.1" class="st0" width="0.9" height="4.7"/>
	<rect x="187.4" y="99.1" class="st0" width="7.2" height="0.9"/>
	<rect x="206.5" y="99.1" class="st0" width="7.2" height="0.9"/>
	<rect x="187.4" y="103.1" class="st0" width="26.5" height="0.9"/>
	<rect x="190.5" y="117.7" class="st0" width="0.9" height="4.7"/>
	<rect x="196.9" y="117.7" class="st0" width="0.9" height="4.7"/>
	<rect x="193.8" y="117.7" class="st0" width="0.9" height="4.7"/>
	<rect x="200.1" y="117.7" class="st0" width="0.9" height="4.7"/>
	<rect x="206.5" y="117.7" class="st0" width="0.9" height="4.7"/>
	<rect x="203.3" y="117.7" class="st0" width="0.9" height="4.7"/>
	<rect x="187.5" y="121.7" class="st0" width="26.3" height="0.9"/>
	<rect x="190.5" y="113.8" class="st0" width="0.9" height="4.7"/>
	<line class="st1" x1="197.9" y1="118.4" x2="196.9" y2="118.4"/>
	<line class="st1" x1="196.9" y1="113.8" x2="197.9" y2="113.8"/>
	<rect x="193.8" y="113.8" class="st0" width="0.9" height="4.7"/>
	<line class="st1" x1="201" y1="118.4" x2="200.1" y2="118.4"/>
	<line class="st1" x1="200.1" y1="113.8" x2="201" y2="113.8"/>
	<rect x="206.5" y="113.8" class="st0" width="0.9" height="4.7"/>
	<line class="st1" x1="204.2" y1="118.4" x2="203.3" y2="118.4"/>
	<line class="st1" x1="203.3" y1="113.8" x2="204.2" y2="113.8"/>
	<rect x="187.4" y="113.8" class="st0" width="7.2" height="0.9"/>
	<rect x="206.5" y="113.8" class="st0" width="7.2" height="0.9"/>
	<rect x="187.4" y="117.7" class="st0" width="26.5" height="0.9"/>
	<rect x="274.1" y="99.1" class="st0" width="0.9" height="4.7"/>
	<rect x="270.9" y="99.1" class="st0" width="0.9" height="4.7"/>
	<rect x="267.7" y="99.1" class="st0" width="0.9" height="4.7"/>
	<line class="st1" x1="278.2" y1="103.8" x2="277.2" y2="103.8"/>
	<line class="st1" x1="277.2" y1="99.1" x2="278.2" y2="99.1"/>
	<line class="st1" x1="284.6" y1="103.8" x2="283.7" y2="103.8"/>
	<line class="st1" x1="283.7" y1="99.1" x2="284.6" y2="99.1"/>
	<line class="st1" x1="281.3" y1="103.8" x2="280.5" y2="103.8"/>
	<line class="st1" x1="280.5" y1="99.1" x2="281.3" y2="99.1"/>
	<rect x="286.9" y="99.1" class="st0" width="0.9" height="4.7"/>
	<rect x="293.4" y="99.1" class="st0" width="0.9" height="4.7"/>
	<rect x="290.1" y="99.1" class="st0" width="0.9" height="4.7"/>
	<rect x="265.1" y="103.1" class="st0" width="35.9" height="0.9"/>
	<rect x="239.8" y="117.7" class="st0" width="0.9" height="4.7"/>
	<rect x="236.6" y="117.7" class="st0" width="0.9" height="4.7"/>
	<rect x="233.4" y="117.7" class="st0" width="0.9" height="4.7"/>
	<rect x="243" y="117.7" class="st0" width="0.9" height="4.7"/>
	<rect x="249.4" y="117.7" class="st0" width="0.9" height="4.7"/>
	<rect x="246.2" y="117.7" class="st0" width="0.9" height="4.7"/>
	<rect x="252.6" y="117.7" class="st0" width="0.9" height="4.7"/>
	<rect x="259.1" y="117.7" class="st0" width="0.9" height="4.7"/>
	<rect x="255.8" y="117.7" class="st0" width="0.9" height="4.7"/>
	<rect x="262.2" y="117.7" class="st0" width="0.9" height="4.7"/>
	<rect x="268.7" y="117.7" class="st0" width="0.9" height="4.7"/>
	<rect x="265.5" y="117.7" class="st0" width="0.9" height="4.7"/>
	<rect x="271.8" y="117.7" class="st0" width="0.9" height="4.7"/>
	<rect x="275" y="117.7" class="st0" width="0.9" height="4.7"/>
	<rect x="271.8" y="117.7" class="st0" width="0.9" height="4.7"/>
	<rect x="230.8" y="117.7" class="st0" width="47.8" height="0.9"/>
	<rect x="220.7" y="121.7" class="st0" width="47.8" height="0.9"/>
	<rect x="284.1" y="117.7" class="st0" width="0.9" height="4.7"/>
	<rect x="280.8" y="117.7" class="st0" width="0.9" height="4.7"/>
	<rect x="277.7" y="117.7" class="st0" width="0.9" height="4.7"/>
	<rect x="287.2" y="117.7" class="st0" width="0.9" height="4.7"/>
	<rect x="293.7" y="117.7" class="st0" width="0.9" height="4.7"/>
	<rect x="290.4" y="117.7" class="st0" width="0.9" height="4.7"/>
	<rect x="296.8" y="117.7" class="st0" width="0.9" height="4.7"/>
	<rect x="300.1" y="117.7" class="st0" width="0.9" height="4.7"/>
	<rect x="275" y="117.7" class="st0" width="25" height="0.9"/>
	<rect x="264.9" y="121.7" class="st0" width="35.9" height="0.9"/>
	<rect x="239.8" y="113.7" class="st0" width="0.9" height="4.7"/>
	<line class="st1" x1="237.4" y1="118.4" x2="236.6" y2="118.4"/>
	<line class="st1" x1="236.6" y1="113.7" x2="237.4" y2="113.7"/>
	<line class="st1" x1="234.3" y1="118.4" x2="233.4" y2="118.4"/>
	<line class="st1" x1="233.4" y1="113.7" x2="234.3" y2="113.7"/>
	<rect x="243" y="113.7" class="st0" width="0.9" height="4.7"/>
	<line class="st1" x1="250.3" y1="118.4" x2="249.4" y2="118.4"/>
	<line class="st1" x1="249.4" y1="113.7" x2="250.3" y2="113.7"/>
	<rect x="246.2" y="113.7" class="st0" width="0.9" height="4.7"/>
	<line class="st1" x1="253.6" y1="118.4" x2="252.6" y2="118.4"/>
	<line class="st1" x1="252.6" y1="113.7" x2="253.6" y2="113.7"/>
	<rect x="259.1" y="113.7" class="st0" width="0.9" height="4.7"/>
	<line class="st1" x1="256.7" y1="118.4" x2="255.8" y2="118.4"/>
	<line class="st1" x1="255.8" y1="113.7" x2="256.7" y2="113.7"/>
	<rect x="262.2" y="113.7" class="st0" width="0.9" height="4.7"/>
	<line class="st1" x1="269.6" y1="118.4" x2="268.7" y2="118.4"/>
	<line class="st1" x1="268.7" y1="113.7" x2="269.6" y2="113.7"/>
	<rect x="265.5" y="113.7" class="st0" width="0.9" height="4.7"/>
	<line class="st1" x1="272.7" y1="118.4" x2="271.8" y2="118.4"/>
	<line class="st1" x1="271.8" y1="113.7" x2="272.7" y2="113.7"/>
	<line class="st1" x1="275.9" y1="118.4" x2="275" y2="118.4"/>
	<line class="st1" x1="275" y1="113.7" x2="275.9" y2="113.7"/>
	<line class="st1" x1="272.7" y1="118.4" x2="271.8" y2="118.4"/>
	<line class="st1" x1="271.8" y1="113.7" x2="272.7" y2="113.7"/>
	<rect x="239.8" y="113.7" class="st0" width="7.2" height="0.9"/>
	<rect x="259.1" y="113.7" class="st0" width="7.2" height="0.9"/>
	<rect x="277.7" y="113.7" class="st0" width="7.2" height="0.9"/>
	<rect x="220.7" y="117.7" class="st0" width="47.8" height="0.9"/>
	<rect x="284.1" y="113.7" class="st0" width="0.9" height="4.7"/>
	<rect x="280.8" y="113.7" class="st0" width="0.9" height="4.7"/>
	<rect x="277.7" y="113.7" class="st0" width="0.9" height="4.7"/>
	<line class="st1" x1="288.2" y1="118.4" x2="287.2" y2="118.4"/>
	<line class="st1" x1="287.2" y1="113.7" x2="288.2" y2="113.7"/>
	<line class="st1" x1="294.5" y1="118.4" x2="293.7" y2="118.4"/>
	<line class="st1" x1="293.7" y1="113.7" x2="294.5" y2="113.7"/>
	<line class="st1" x1="291.3" y1="118.4" x2="290.4" y2="118.4"/>
	<line class="st1" x1="290.4" y1="113.7" x2="291.3" y2="113.7"/>
	<rect x="275" y="117.7" class="st0" width="25.5" height="0.9"/>
	<rect x="220.7" y="94.1" class="st2" width="80.1" height="32.8"/>
	<rect x="213.9" y="98.6" class="st2" width="6.7" height="10.5"/>
	<rect x="154.1" y="98.6" class="st2" width="33.3" height="10.5"/>
	<rect x="213.9" y="113.2" class="st2" width="6.7" height="10.5"/>
	<rect x="187.4" y="94.1" class="st2" width="26.6" height="33.7"/>
	<g>
		<rect x="96" y="83.3" class="st2" width="5" height="6.5"/>
		<rect x="101.3" y="83.3" class="st2" width="5" height="6.5"/>
		<rect x="106.6" y="83.3" class="st2" width="5" height="6.5"/>
		<rect x="111.8" y="83.3" class="st2" width="5" height="6.5"/>
		<rect x="117.1" y="83.3" class="st2" width="5" height="6.5"/>
		<rect x="122.4" y="83.3" class="st2" width="5" height="6.5"/>
		<rect x="127.6" y="83.3" class="st2" width="5" height="6.5"/>
		<rect x="132.9" y="83.3" class="st2" width="5" height="6.5"/>
		<rect x="138.2" y="83.3" class="st2" width="5" height="6.5"/>
		<rect x="143.5" y="83.3" class="st2" width="5" height="6.5"/>
		<rect x="148.7" y="83.3" class="st2" width="5" height="6.5"/>
	</g>
	<g>
		<rect x="96" y="95.2" class="st2" width="5" height="6.5"/>
		<rect x="101.3" y="95.2" class="st2" width="5" height="6.5"/>
		<rect x="106.6" y="95.2" class="st2" width="5" height="6.5"/>
		<rect x="111.8" y="95.2" class="st2" width="5" height="6.5"/>
		<rect x="117.1" y="95.2" class="st2" width="5" height="6.5"/>
		<rect x="122.4" y="95.2" class="st2" width="5" height="6.5"/>
		<rect x="127.6" y="95.2" class="st2" width="5" height="6.5"/>
		<rect x="132.9" y="95.2" class="st2" width="5" height="6.5"/>
		<rect x="138.2" y="95.2" class="st2" width="5" height="6.5"/>
		<rect x="143.5" y="95.2" class="st2" width="5" height="6.5"/>
		<rect x="148.7" y="95.2" class="st2" width="5" height="6.5"/>
	</g>
	<rect x="69.6" y="77.2" class="st2" width="84.5" height="49.9"/>
	<rect x="2.6" y="80.7" class="st2" width="67" height="46.3"/>
	<rect x="58" y="80.7" class="st2" width="11.6" height="46.3"/>
	<rect x="2.6" y="80.7" class="st2" width="11.6" height="46.3"/>
	<g>
		<rect x="69.6" y="83.3" class="st2" width="5" height="6.5"/>
		<rect x="74.9" y="83.3" class="st2" width="5" height="6.5"/>
		<rect x="80.1" y="83.3" class="st2" width="5" height="6.5"/>
		<rect x="85.4" y="83.3" class="st2" width="5" height="6.5"/>
		<rect x="90.7" y="83.3" class="st2" width="5" height="6.5"/>
	</g>
	<g>
		<rect x="69.6" y="95.2" class="st2" width="5" height="6.5"/>
		<rect x="74.9" y="95.2" class="st2" width="5" height="6.5"/>
		<rect x="80.1" y="95.2" class="st2" width="5" height="6.5"/>
		<rect x="85.4" y="95.2" class="st2" width="5" height="6.5"/>
		<rect x="90.7" y="95.2" class="st2" width="5" height="6.5"/>
	</g>
	<rect x="96" y="107.2" class="st2" width="5" height="6.5"/>
	<rect x="101.3" y="107.2" class="st2" width="5" height="6.5"/>
	<rect x="106.6" y="107.2" class="st2" width="5" height="6.5"/>
	<rect x="111.8" y="107.2" class="st2" width="5" height="6.5"/>
	<rect x="117.1" y="107.2" class="st2" width="5" height="6.5"/>
	<rect x="122.4" y="107.2" class="st2" width="5" height="6.5"/>
	<rect x="127.6" y="107.2" class="st2" width="5" height="6.5"/>
	<rect x="132.9" y="107.2" class="st2" width="5" height="6.5"/>
	<rect x="138.2" y="107.2" class="st2" width="5" height="6.5"/>
	<rect x="143.5" y="107.2" class="st2" width="5" height="6.5"/>
	<rect x="132.9" y="120" class="st2" width="5" height="6.5"/>
	<rect x="138.2" y="120" class="st2" width="5" height="6.5"/>
	<rect x="143.5" y="120" class="st2" width="5" height="6.5"/>
	<rect x="148.7" y="107.2" class="st2" width="5" height="6.5"/>
	<g>
		<rect x="69.6" y="107.2" class="st2" width="5" height="6.5"/>
		<rect x="74.9" y="107.2" class="st2" width="5" height="6.5"/>
		<rect x="80.1" y="107.2" class="st2" width="5" height="6.5"/>
		<rect x="85.4" y="107.2" class="st2" width="5" height="6.5"/>
		<rect x="90.7" y="107.2" class="st2" width="5" height="6.5"/>
	</g>
	<line class="st2" x1="127.6" y1="77.2" x2="127.6" y2="127"/>
	<line class="st2" x1="122.4" y1="77.2" x2="122.4" y2="127"/>
	<rect x="14" y="80.7" class="st0" width="44" height="46.6"/>
	<line class="st2" x1="69.6" y1="92.6" x2="2.6" y2="92.6"/>
	<line class="st2" x1="69.6" y1="104.2" x2="2.6" y2="104.2"/>
	<line class="st2" x1="69.6" y1="115.9" x2="2.6" y2="115.9"/>
	<line class="st3" x1="11.9" y1="94.2" x2="59.5" y2="94.2"/>
	<line class="st3" x1="11.9" y1="106.1" x2="59.5" y2="106.1"/>
	<line class="st3" x1="11.9" y1="118" x2="59.5" y2="118"/>
	<line class="st3" x1="21.4" y1="79.4" x2="21.4" y2="117.7"/>
	<line class="st3" x1="28.7" y1="79.4" x2="28.7" y2="117.7"/>
	<line class="st3" x1="36.1" y1="79.4" x2="36.1" y2="117.7"/>
	<line class="st3" x1="43.4" y1="79.4" x2="43.4" y2="117.7"/>
	<line class="st3" x1="50.7" y1="79.4" x2="50.7" y2="117.7"/>
	<path class="st0" d="M69,76.7H1.1c-1,0-1.5,1.2-0.9,1.9l1.3,1.2c0.2,0.2,0.5,0.3,0.9,0.3H69c0.6,0,1.1-0.5,1.1-1.1v-1.3
		C70.1,77.2,69.6,76.7,69,76.7z"/>
	<line class="st2" x1="154.1" y1="109.1" x2="162.2" y2="98.6"/>
	<line class="st2" x1="160.2" y1="109.1" x2="168.3" y2="98.6"/>
	<line class="st2" x1="166.5" y1="109.1" x2="174.6" y2="98.6"/>
	<line class="st2" x1="172.7" y1="109.1" x2="180.8" y2="98.6"/>
	<line class="st2" x1="178.9" y1="109.1" x2="187" y2="98.6"/>
	<line class="st2" x1="214.2" y1="108.8" x2="220.7" y2="99.1"/>
	<line class="st2" x1="214.2" y1="123.4" x2="220.7" y2="113.7"/>
</g>
</svg>
