<?xml version="1.0" encoding="utf-8"?>
<!-- Generator: Adobe Illustrator 21.0.0, SVG Export Plug-In . SVG Version: 6.00 Build 0)  -->
<svg version="1.1" id="Layer_1" xmlns="http://www.w3.org/2000/svg" xmlns:xlink="http://www.w3.org/1999/xlink" x="0px" y="0px"
	 viewBox="0 0 300 127.4" style="enable-background:new 0 0 300 127.4;" xml:space="preserve">
<style type="text/css">
	.st0{fill:#0559A2;}
	.st1{fill:none;stroke:#0559A2;stroke-width:0.75;stroke-miterlimit:10;}
</style>
<g>
	<line class="st0" x1="110.1" y1="97.2" x2="110.1" y2="95.9"/>
	<line class="st0" x1="149.8" y1="95.9" x2="149.8" y2="97.2"/>
	<line class="st0" x1="110" y1="85.2" x2="110" y2="83.8"/>
	<line class="st0" x1="149.5" y1="83.8" x2="149.5" y2="85.2"/>
	<line class="st0" x1="110" y1="91.2" x2="110" y2="89.9"/>
	<line class="st0" x1="149.8" y1="89.9" x2="149.8" y2="91.2"/>
	<line class="st0" x1="110.1" y1="119.2" x2="110.1" y2="117.9"/>
	<line class="st0" x1="149.7" y1="117.9" x2="149.7" y2="119.2"/>
	<line class="st0" x1="110" y1="107.3" x2="110" y2="106"/>
	<line class="st0" x1="149.5" y1="106" x2="149.5" y2="107.3"/>
	<line class="st0" x1="110" y1="113.2" x2="110" y2="111.8"/>
	<line class="st0" x1="149.8" y1="111.8" x2="149.8" y2="113.2"/>
	<rect x="110" y="76.3" class="st1" width="40" height="50.7"/>
</g>
<rect x="28.5" y="113.7" class="st0" width="1" height="1"/>
<rect x="25.7" y="110.7" class="st0" width="1" height="1"/>
<rect x="27.6" y="106.3" class="st0" width="1" height="1"/>
<rect x="6.4" y="112.4" class="st0" width="1" height="1"/>
<rect x="13.3" y="105.6" class="st0" width="1" height="1"/>
<rect x="11.3" y="109.5" class="st0" width="1" height="1"/>
<rect x="5.4" y="103.7" class="st0" width="1" height="1"/>
<g>
	<path class="st0" d="M9.4,97.7c3.6,0,6.6,4.4,6.6,9.9s-3,9.9-6.6,9.9s-6.6-4.4-6.6-9.9S5.7,97.7,9.4,97.7 M9.4,96.9
		c-4.1,0-7.4,4.8-7.4,10.6c0,5.9,3.3,10.6,7.4,10.6s7.4-4.8,7.4-10.6C16.7,101.7,13.4,96.9,9.4,96.9L9.4,96.9z"/>
</g>
<g>
	<path class="st0" d="M28,97.7c1.2,0.8,3.2,10.1,3.2,16.4c0,5.4-1.4,5.4-3.2,5.4c-1.8,0-3.2,0-3.2-5.4C24.7,107.8,26.7,98.5,28,97.7
		 M28,96.9c-2,0-4,11.3-4,17.2s1.8,6.1,4,6.1s4-0.3,4-6.1S30,96.9,28,96.9L28,96.9z"/>
</g>
<g>
	<path class="st0" d="M19.1,113.3c0.7,0,2.2,3.1,2.2,6c0,1.9-0.8,3-2.2,3s-2.2-1.1-2.2-3C16.9,116.4,18.5,113.3,19.1,113.3
		 M19.1,112.5c-1.5,0-3,4.1-3,6.8c0,2.7,1.3,3.8,3,3.8s3-1.1,3-3.8C22.1,116.6,20.6,112.5,19.1,112.5L19.1,112.5z"/>
</g>
<line class="st1" x1="9.3" y1="114" x2="9.3" y2="127.1"/>
<line class="st1" x1="28" y1="118.1" x2="28" y2="127.1"/>
<line class="st1" x1="19.1" y1="122.7" x2="19.1" y2="127.1"/>
<rect x="62.3" y="113.7" class="st0" width="1" height="1"/>
<rect x="59.5" y="110.7" class="st0" width="1" height="1"/>
<rect x="61.4" y="106.3" class="st0" width="1" height="1"/>
<rect x="40.2" y="112.4" class="st0" width="1" height="1"/>
<rect x="47.1" y="105.6" class="st0" width="1" height="1"/>
<rect x="45.1" y="109.5" class="st0" width="1" height="1"/>
<rect x="39.2" y="103.7" class="st0" width="1" height="1"/>
<g>
	<path class="st0" d="M43.2,97.7c3.6,0,6.6,4.4,6.6,9.9s-3,9.9-6.6,9.9s-6.6-4.4-6.6-9.9S39.5,97.7,43.2,97.7 M43.2,96.9
		c-4.1,0-7.4,4.8-7.4,10.6c0,5.9,3.3,10.6,7.4,10.6s7.4-4.8,7.4-10.6C50.5,101.7,47.2,96.9,43.2,96.9L43.2,96.9z"/>
</g>
<g>
	<path class="st0" d="M61.8,97.7c1.2,0.8,3.2,10.1,3.2,16.4c0,5.4-1.4,5.4-3.2,5.4c-1.8,0-3.2,0-3.2-5.4
		C58.5,107.8,60.5,98.5,61.8,97.7 M61.8,96.9c-2,0-4,11.3-4,17.2s1.8,6.1,4,6.1s4-0.3,4-6.1S63.8,96.9,61.8,96.9L61.8,96.9z"/>
</g>
<g>
	<path class="st0" d="M52.9,113.3c0.7,0,2.2,3.1,2.2,6c0,1.9-0.8,3-2.2,3s-2.2-1.1-2.2-3C50.7,116.4,52.3,113.3,52.9,113.3
		 M52.9,112.5c-1.5,0-3,4.1-3,6.8c0,2.7,1.3,3.8,3,3.8s3-1.1,3-3.8C55.9,116.6,54.4,112.5,52.9,112.5L52.9,112.5z"/>
</g>
<line class="st1" x1="43.1" y1="114" x2="43.1" y2="127.1"/>
<line class="st1" x1="61.8" y1="118.1" x2="61.8" y2="127.1"/>
<line class="st1" x1="52.9" y1="122.7" x2="52.9" y2="127.1"/>
<rect x="262.7" y="113.7" class="st0" width="1" height="1"/>
<rect x="259.9" y="110.7" class="st0" width="1" height="1"/>
<rect x="261.8" y="106.3" class="st0" width="1" height="1"/>
<rect x="240.6" y="112.4" class="st0" width="1" height="1"/>
<rect x="247.5" y="105.6" class="st0" width="1" height="1"/>
<rect x="245.5" y="109.5" class="st0" width="1" height="1"/>
<rect x="239.6" y="103.7" class="st0" width="1" height="1"/>
<g>
	<path class="st0" d="M243.6,97.7c3.6,0,6.6,4.4,6.6,9.9s-3,9.9-6.6,9.9s-6.6-4.4-6.6-9.9S239.9,97.7,243.6,97.7 M243.6,96.9
		c-4.1,0-7.4,4.8-7.4,10.6c0,5.9,3.3,10.6,7.4,10.6s7.4-4.8,7.4-10.6C250.9,101.7,247.6,96.9,243.6,96.9L243.6,96.9z"/>
</g>
<g>
	<path class="st0" d="M262.2,97.7c1.2,0.8,3.2,10.1,3.2,16.4c0,5.4-1.4,5.4-3.2,5.4c-1.8,0-3.2,0-3.2-5.4
		C258.9,107.8,260.9,98.5,262.2,97.7 M262.2,96.9c-2,0-4,11.3-4,17.2s1.8,6.1,4,6.1s4-0.3,4-6.1S264.2,96.9,262.2,96.9L262.2,96.9z"
		/>
</g>
<g>
	<path class="st0" d="M253.3,113.3c0.7,0,2.2,3.1,2.2,6c0,1.9-0.8,3-2.2,3s-2.2-1.1-2.2-3C251.1,116.4,252.7,113.3,253.3,113.3
		 M253.3,112.5c-1.5,0-3,4.1-3,6.8c0,2.7,1.3,3.8,3,3.8s3-1.1,3-3.8C256.3,116.6,254.8,112.5,253.3,112.5L253.3,112.5z"/>
</g>
<line class="st1" x1="243.5" y1="114" x2="243.5" y2="127.1"/>
<line class="st1" x1="262.2" y1="118.1" x2="262.2" y2="127.1"/>
<rect x="202.4" y="113.7" class="st0" width="1" height="1"/>
<rect x="199.6" y="110.7" class="st0" width="1" height="1"/>
<rect x="201.5" y="106.3" class="st0" width="1" height="1"/>
<rect x="180.3" y="112.4" class="st0" width="1" height="1"/>
<rect x="187.2" y="105.6" class="st0" width="1" height="1"/>
<rect x="185.2" y="109.5" class="st0" width="1" height="1"/>
<rect x="179.3" y="103.7" class="st0" width="1" height="1"/>
<g>
	<path class="st0" d="M183.3,97.7c3.6,0,6.6,4.4,6.6,9.9s-3,9.9-6.6,9.9s-6.6-4.4-6.6-9.9S179.6,97.7,183.3,97.7 M183.3,96.9
		c-4.1,0-7.4,4.8-7.4,10.6c0,5.9,3.3,10.6,7.4,10.6s7.4-4.8,7.4-10.6C190.6,101.7,187.3,96.9,183.3,96.9L183.3,96.9z"/>
</g>
<g>
	<path class="st0" d="M201.9,97.7c1.2,0.8,3.2,10.1,3.2,16.4c0,5.4-1.4,5.4-3.2,5.4c-1.8,0-3.2,0-3.2-5.4
		C198.6,107.8,200.6,98.5,201.9,97.7 M201.9,96.9c-2,0-4,11.3-4,17.2s1.8,6.1,4,6.1s4-0.3,4-6.1S203.9,96.9,201.9,96.9L201.9,96.9z"
		/>
</g>
<g>
	<path class="st0" d="M193,113.3c0.7,0,2.2,3.1,2.2,6c0,1.9-0.8,3-2.2,3s-2.2-1.1-2.2-3C190.8,116.4,192.4,113.3,193,113.3
		 M193,112.5c-1.5,0-3,4.1-3,6.8c0,2.7,1.3,3.8,3,3.8s3-1.1,3-3.8C196,116.6,194.5,112.5,193,112.5L193,112.5z"/>
</g>
<line class="st1" x1="183.2" y1="114" x2="183.2" y2="127.1"/>
<line class="st1" x1="201.9" y1="118.1" x2="201.9" y2="127.1"/>
<line class="st1" x1="253.3" y1="122.7" x2="253.3" y2="127.1"/>
<rect x="296.4" y="113.7" class="st0" width="1" height="1"/>
<rect x="293.6" y="110.7" class="st0" width="1" height="1"/>
<rect x="295.5" y="106.3" class="st0" width="1" height="1"/>
<rect x="274.3" y="112.4" class="st0" width="1" height="1"/>
<rect x="281.2" y="105.6" class="st0" width="1" height="1"/>
<rect x="279.2" y="109.5" class="st0" width="1" height="1"/>
<rect x="273.3" y="103.7" class="st0" width="1" height="1"/>
<g>
	<path class="st0" d="M277.3,97.7c3.6,0,6.6,4.4,6.6,9.9s-3,9.9-6.6,9.9s-6.6-4.4-6.6-9.9S273.6,97.7,277.3,97.7 M277.3,96.9
		c-4.1,0-7.4,4.8-7.4,10.6c0,5.9,3.3,10.6,7.4,10.6s7.4-4.8,7.4-10.6C284.6,101.7,281.3,96.9,277.3,96.9L277.3,96.9z"/>
</g>
<g>
	<path class="st0" d="M295.9,97.7c1.2,0.8,3.2,10.1,3.2,16.4c0,5.4-1.4,5.4-3.2,5.4c-1.8,0-3.2,0-3.2-5.4
		C292.6,107.8,294.6,98.5,295.9,97.7 M295.9,96.9c-2,0-4,11.3-4,17.2s1.8,6.1,4,6.1s4-0.3,4-6.1S297.9,96.9,295.9,96.9L295.9,96.9z"
		/>
</g>
<g>
	<path class="st0" d="M287,113.3c0.7,0,2.2,3.1,2.2,6c0,1.9-0.8,3-2.2,3s-2.2-1.1-2.2-3C284.8,116.4,286.4,113.3,287,113.3
		 M287,112.5c-1.5,0-3,4.1-3,6.8c0,2.7,1.3,3.8,3,3.8s3-1.1,3-3.8C290,116.6,288.5,112.5,287,112.5L287,112.5z"/>
</g>
<line class="st1" x1="277.2" y1="114" x2="277.2" y2="127.1"/>
<line class="st1" x1="295.9" y1="118.1" x2="295.9" y2="127.1"/>
<line class="st1" x1="287" y1="122.7" x2="287" y2="127.1"/>
<line class="st1" x1="150.4" y1="95.5" x2="109.5" y2="95.5"/>
<line class="st1" x1="109.5" y1="95.5" x2="150.4" y2="95.5"/>
<line class="st1" x1="109.5" y1="96.8" x2="150.4" y2="96.8"/>
<rect x="115.7" y="85.7" class="st1" width="6.1" height="9.7"/>
<rect x="138.8" y="85.7" class="st1" width="6.1" height="9.7"/>
<rect x="127.3" y="85.7" class="st1" width="6.1" height="9.7"/>
<line class="st1" x1="150.4" y1="110.4" x2="109.5" y2="110.4"/>
<line class="st1" x1="109.5" y1="110.4" x2="150.4" y2="110.4"/>
<line class="st1" x1="109.5" y1="111.7" x2="150.4" y2="111.7"/>
<rect x="115.7" y="100.6" class="st1" width="6.1" height="9.7"/>
<rect x="138.8" y="100.6" class="st1" width="6.1" height="9.7"/>
<rect x="127.3" y="100.6" class="st1" width="6.1" height="9.7"/>
<rect x="127.3" y="116.9" class="st1" width="6.1" height="9.7"/>
<line class="st1" x1="131.3" y1="121.8" x2="132.6" y2="121.8"/>
</svg>
