<?xml version="1.0" encoding="utf-8"?>
<!-- Generator: Adobe Illustrator 21.0.0, SVG Export Plug-In . SVG Version: 6.00 Build 0)  -->
<svg version="1.1" id="Layer_1" xmlns="http://www.w3.org/2000/svg" xmlns:xlink="http://www.w3.org/1999/xlink" x="0px" y="0px"
	 viewBox="0 0 45 45" style="enable-background:new 0 0 45 45;" xml:space="preserve">
<style type="text/css">
	.st0{fill:#0559A2;}
	.st1{fill:#FFFFFF;}
</style>
<circle class="st0" cx="22.5" cy="22.5" r="22.5"/>
<g>
	<path class="st1" d="M21.7,27.8c0-1.2,0.2-2.2,0.6-2.9c0.3-0.7,1-1.5,2-2.4c1-0.9,1.6-1.6,2-2.1c0.4-0.6,0.7-1.1,0.8-1.7
		s0.2-1.3,0.2-2.1c0-1.5-0.4-2.8-1.2-3.6c-0.8-0.9-2-1.3-3.3-1.3c-1.5,0-2.7,0.5-3.6,1.4c-0.9,0.9-1.3,2.1-1.4,3.5h-0.9
		c0-1.7,0.6-3.1,1.7-4.2s2.4-1.5,4.2-1.5c1.7,0,3,0.5,4,1.5c1,1.1,1.5,2.4,1.5,4.2c0,1.2-0.2,2.3-0.7,3.3c-0.5,1-1.4,2-2.8,3.3
		c-1.4,1.1-2.1,2.7-2.1,4.7L21.7,27.8L21.7,27.8z M21.4,33.4c0-0.2,0.1-0.5,0.2-0.7c0.2-0.2,0.4-0.2,0.7-0.2c0.2,0,0.5,0.1,0.7,0.2
		c0.2,0.2,0.2,0.4,0.2,0.7s-0.1,0.5-0.2,0.7c-0.2,0.2-0.5,0.2-0.7,0.2c-0.2,0-0.5-0.1-0.7-0.2C21.4,33.9,21.4,33.7,21.4,33.4z"/>
</g>
</svg>
