<?xml version="1.0" encoding="utf-8"?>
<!-- Generator: Adobe Illustrator 21.0.0, SVG Export Plug-In . SVG Version: 6.00 Build 0)  -->
<svg version="1.1" id="Layer_1" xmlns="http://www.w3.org/2000/svg" xmlns:xlink="http://www.w3.org/1999/xlink" x="0px" y="0px"
	 viewBox="0 0 969.5 979" style="enable-background:new 0 0 969.5 979;" xml:space="preserve">
<style type="text/css">
	.st0{fill:#A24AFF;stroke:#FFFFFF;stroke-width:0.5;}
	.st1{opacity:0.4;fill:#881AE8;stroke:#FFFFFF;stroke-width:0.5;}
	.st2{opacity:0.8;fill:#881AE8;fill-opacity:0.1;stroke:#FFFFFF;stroke-width:0.5;}
	.st3{fill:#F9DA58;stroke:#FFFFFF;stroke-width:0.5;}
	.st4{opacity:0.3;}
	.st5{fill:#F7C906;}
	.st6{opacity:0.1;}
	.st7{fill:#5BB2DD;stroke:#FFFFFF;stroke-width:0.5;}
	.st8{opacity:0.3;fill:#45C3EF;stroke:#FFFFFF;stroke-width:0.5;}
	.st9{opacity:0.1;fill:#29ABE2;stroke:#FFFFFF;stroke-width:0.5;}
	.st10{fill:#B0D654;stroke:#FFFFFF;stroke-width:0.5;}
	.st11{opacity:0.3;fill:#B4E842;stroke:#FFFFFF;stroke-width:0.5;}
	.st12{opacity:0.1;fill:#9ADB24;stroke:#FFFFFF;stroke-width:0.5;}
	.st13{fill:#0079D3;stroke:#FFFFFF;stroke-width:0.5;}
	.st14{opacity:0.6;fill:#29ABE2;stroke:#FFFFFF;stroke-width:0.5;}
	.st15{opacity:0.1;fill:#0079D3;stroke:#FFFFFF;stroke-width:0.5;}
	.st16{fill:#FF7BAC;stroke:#FFFFFF;}
	.st17{fill:#FFFFFF;}
	.st18{display:none;}
	.st19{display:inline;fill:#666666;stroke:#FFFFFF;}
	.st20{font-family:'RobotoCondensed-Light';}
	.st21{font-size:10px;}
	.st22{fill:#666666;}
	.st23{enable-background:new    ;}
	.st24{fill:#0079D3;stroke:#FFFFFF;stroke-width:4;}
	.st25{fill:none;}
	.st26{fill:#0559A2;}
	.st27{font-family:'RobotoCondensed-Regular';}
	.st28{font-size:19px;}
	.st29{fill:#F2EFE0;}
	.st30{font-family:'Montserrat-Thin';}
	.st31{font-size:48px;}
	.st32{font-family:'Montserrat-Bold';}
	.st33{fill:#FF7BAC;}
</style>
<path class="st0" d="M485,150.6c187.5,0,339.4,152,339.4,339.4c0,175.1-133.2,321.5-307.6,337.9l-9.3-99
	c132-12.4,228.9-129.5,216.4-261.5C712.3,344.2,608.8,250,485,250V150.6z"/>
<path class="st1" d="M485,74.3c56,0,111.4,11.3,162.9,33.3L618,177.7c-42.1-17.9-87.3-27.2-133-27.2V74.3z"/>
<path class="st2" d="M485,10c32.2,0,64.4,3.2,96,9.7l-12.9,63c-27.4-5.6-55.2-8.4-83.1-8.4V10z"/>
<path class="st2" d="M581,19.7c10.5,2.1,21,4.6,31.3,7.5l-17.1,62c-9-2.5-18-4.6-27.1-6.5L581,19.7z"/>
<path class="st3" d="M516.9,827.9c-87.3,8.2-174.3-17.6-243-72.1l61.8-77.8c48.5,38.6,110.1,56.8,171.8,51L516.9,827.9z"/>
<g class="st4">
	<path class="st5" d="M524,903.9c-106.9,10.1-213.5-21.6-297.6-88.4l47.4-59.7c68.6,54.5,155.7,80.4,243,72.1L524,903.9z"/>
</g>
<g class="st6">
	<path class="st5" d="M530,967.9c-32.1,3-64.4,2.8-96.5-0.6l6.9-63.9c27.8,3,55.8,3.2,83.6,0.6L530,967.9z"/>
</g>
<path class="st7" d="M273.9,755.8c-84.8-67.4-132.4-171.2-128-279.4l99.3,4c-3.1,76.5,30.5,149.9,90.5,197.6L273.9,755.8z"/>
<path class="st8" d="M226.4,815.5c-26.3-20.9-49.9-44.8-70.4-71.3l60.4-46.6c16.7,21.7,36,41.2,57.5,58.2L226.4,815.5z"/>
<path class="st9" d="M186.4,865.9c-15.1-12-29.5-25-43.1-38.7l45.8-45.2c11.8,11.9,24.2,23.1,37.3,33.5L186.4,865.9z"/>
<path class="st8" d="M156.1,744.2c-41.1-53.3-68.8-115.7-80.4-182l75.1-13.2c9.5,54.1,32.1,105.1,65.7,148.6L156.1,744.2z"/>
<path class="st9" d="M105.2,783.5c-21-27.2-39.1-56.6-53.8-87.7l58.1-27.6c12.8,26.9,28.4,52.4,46.6,76L105.2,783.5z"/>
<path class="st8" d="M75.6,562.2c-5.2-29.3-7.2-59.2-6-88.9l76.2,3.1c-1,24.3,0.7,48.6,4.9,72.6L75.6,562.2z"/>
<path class="st9" d="M12.3,573.4c-2.2-12.7-4-25.5-5.2-38.3l64-6c1,11.1,2.5,22.2,4.5,33.2L12.3,573.4z"/>
<path class="st9" d="M7.1,535c-1.2-12.8-1.9-25.7-2.1-38.6l64.3-0.9c0.1,11.2,0.7,22.3,1.8,33.4L7.1,535z"/>
<path class="st10" d="M145.9,476.3c6.8-168,135.6-305.8,302.8-323.8l10.7,98.8C341,264.1,250,361.5,245.2,480.3L145.9,476.3z"/>
<path class="st11" d="M69.6,473.3c2.8-69.1,22.8-136.5,58.2-195.9l65.5,39c-28.9,48.5-45.2,103.5-47.5,160L69.6,473.3z"/>
<path class="st12" d="M5.4,470.7c0.5-12.9,1.6-25.7,3.1-38.5l63.8,7.8c-1.3,11.1-2.2,22.2-2.7,33.4L5.4,470.7z"/>
<path class="st12" d="M36.2,319.8c9.9-26.1,22.1-51.3,36.4-75.3l55.3,32.9c-12.4,20.8-22.9,42.6-31.5,65.3L36.2,319.8z"/>
<path class="st12" d="M105.2,196.5c9.2-11.9,18.9-23.4,29.2-34.3l47,43.9c-8.9,9.5-17.3,19.4-25.3,29.7L105.2,196.5z"/>
<path class="st12" d="M212.3,95c14.1-9.8,28.8-18.8,43.9-27l30.6,56.5c-13.1,7.1-25.8,14.9-38,23.3L212.3,95z"/>
<path class="st11" d="M286.9,124.5c47.6-25.8,99.7-42,153.5-47.8l8.2,75.8c-43.9,4.7-86.5,18-125.4,39.1L286.9,124.5z"/>
<path class="st12" d="M256.2,68c18.9-10.2,38.5-19.2,58.5-26.8l22.8,60.1c-17.4,6.6-34.3,14.4-50.7,23.2L256.2,68z"/>
<path class="st12" d="M314.8,41.2c20.1-7.6,40.7-13.9,61.6-18.7l14.6,62.6c-18.1,4.2-36,9.6-53.4,16.2L314.8,41.2z"/>
<path class="st13" d="M448.6,152.5c12.1-1.3,24.2-2,36.4-2V250c-8.6,0-17.2,0.5-25.7,1.4L448.6,152.5z"/>
<path class="st14" d="M440.4,76.7c14.8-1.6,29.7-2.4,44.6-2.4v76.3c-12.2,0-24.3,0.7-36.4,2L440.4,76.7z"/>
<path class="st15" d="M433.5,12.8c8.5-0.9,17.1-1.6,25.7-2.1l3.5,64.2c-7.4,0.4-14.8,1-22.2,1.8L433.5,12.8z"/>
<path class="st15" d="M459.2,10.7c8.6-0.5,17.2-0.7,25.8-0.7v64.3c-7.4,0-14.9,0.2-22.3,0.6L459.2,10.7z"/>
<path class="st2" d="M612.3,27.2c20.7,5.7,41,12.8,60.8,21.2l-25.2,59.2c-17.1-7.3-34.7-13.4-52.7-18.4L612.3,27.2z"/>
<path class="st1" d="M647.9,107.6c15.4,6.6,30.4,14.1,44.9,22.4l-38.1,66.1c-11.8-6.8-24.1-13-36.7-18.3L647.9,107.6z"/>
<path class="st2" d="M673.1,48.4c9.9,4.2,19.6,8.8,29.2,13.6l-29.1,57.3c-8.3-4.2-16.7-8.1-25.3-11.8L673.1,48.4z"/>
<path class="st2" d="M702.3,62c7.7,3.9,15.2,8,22.7,12.3L692.8,130c-6.4-3.7-13-7.3-19.6-10.6L702.3,62z"/>
<path class="st1" d="M692.8,130c45.2,26.1,85.2,60.5,117.7,101.4l-59.7,47.4c-26.5-33.4-59.1-61.5-96.1-82.8L692.8,130z"/>
<path class="st2" d="M725,74.3c37.3,21.5,71.5,47.9,101.7,78.6L780.9,198c-26.2-26.5-55.8-49.4-88.1-68L725,74.3z"/>
<path class="st2" d="M826.7,152.9c9.1,9.2,17.7,18.7,26,28.6l-49.3,41.3c-7.2-8.6-14.7-16.8-22.5-24.8L826.7,152.9z"/>
<path class="st2" d="M852.7,181.5c2.8,3.3,5.5,6.6,8.2,10l-50.4,40c-2.3-2.9-4.7-5.8-7.1-8.6L852.7,181.5z"/>
<path class="st1" d="M810.5,231.4c93.6,117.9,116.2,277.1,59.1,416.3l-70.6-29c46.6-113.7,28.2-243.7-48.2-339.9L810.5,231.4z"/>
<path class="st2" d="M860.9,191.4c26.8,33.7,48.9,70.8,65.7,110.4l-59.2,25.2c-14.6-34.3-33.8-66.4-56.9-95.6L860.9,191.4z"/>
<path class="st2" d="M926.6,301.9c8.4,19.8,15.5,40.1,21.2,60.8l-62,17.1c-4.9-17.9-11.1-35.5-18.4-52.7L926.6,301.9z"/>
<path class="st2" d="M947.8,362.7c8,29,13.2,58.7,15.6,88.7l-64.1,5.2c-2.1-26-6.6-51.7-13.5-76.8L947.8,362.7z"/>
<path class="st2" d="M963.4,451.4c6.1,75.3-5.7,150.9-34.4,220.8l-59.5-24.4c24.8-60.5,35-126,29.8-191.2L963.4,451.4z"/>
<path class="st1" d="M869.6,647.8c-51.9,126.4-162.5,219.2-296,248.3l-16.3-74.5c109-23.8,199.3-99.6,241.7-202.8L869.6,647.8z"/>
<path class="st2" d="M929.1,672.2c-19.6,47.8-46.8,92.1-80.6,131.2l-48.7-42c29.2-33.9,52.8-72.3,69.8-113.7L929.1,672.2z"/>
<path class="st2" d="M848.5,803.4c-33.7,39.1-73.6,72.6-118,99l-32.9-55.3c38.4-22.9,72.9-51.8,102.2-85.7L848.5,803.4z"/>
<path class="st2" d="M730.6,902.4c-25.9,15.4-53.1,28.3-81.4,38.6l-22-60.4c24.5-8.9,48.1-20.1,70.5-33.4L730.6,902.4z"/>
<path class="st2" d="M649.2,941.1c-20.2,7.3-40.9,13.3-61.9,17.9l-13.7-62.8c18.2-4,36.1-9.2,53.6-15.5L649.2,941.1z"/>
<path class="st1" d="M573.6,896.1c-16.4,3.6-32.9,6.1-49.6,7.7l-7.2-75.9c13.6-1.3,27.1-3.4,40.5-6.3L573.6,896.1z"/>
<path class="st2" d="M587.3,959c-8.4,1.8-16.8,3.4-25.3,4.8l-10.3-63.5c7.3-1.2,14.7-2.6,21.9-4.2L587.3,959z"/>
<path class="st2" d="M562,963.8c-6.4,1-12.7,1.9-19.1,2.7l-7.8-63.8c5.5-0.7,11.1-1.5,16.6-2.4L562,963.8z"/>
<path class="st2" d="M542.9,966.5c-4.3,0.5-8.5,1-12.8,1.4l-6-64c3.7-0.3,7.4-0.7,11.1-1.2L542.9,966.5z"/>
<g class="st6">
	<path class="st5" d="M433.5,967.2c-42.8-4.6-84.7-15-124.8-30.8l23.6-59.8c34.7,13.7,71,22.6,108,26.6L433.5,967.2z"/>
</g>
<g class="st6">
	<path class="st5" d="M308.8,936.5c-44-17.4-85.3-41.2-122.3-70.6l40-50.4c32.1,25.5,67.8,46.1,105.9,61.2L308.8,936.5z"/>
</g>
<path class="st9" d="M143.3,827.1c-6-6.1-11.9-12.4-17.6-18.8l48.1-42.6c4.9,5.6,10,11,15.2,16.3L143.3,827.1z"/>
<path class="st9" d="M125.7,808.3c-7.1-8-14-16.3-20.5-24.8l50.9-39.3c5.7,7.4,11.6,14.5,17.8,21.5L125.7,808.3z"/>
<path class="st9" d="M51.3,695.8c-14.7-31.1-26.1-63.7-33.9-97.2l62.6-14.6c6.7,29,16.6,57.2,29.4,84.2L51.3,695.8z"/>
<path class="st9" d="M17.4,598.6c-1.9-8.4-3.7-16.8-5.2-25.3l63.3-11.2c1.3,7.3,2.8,14.6,4.5,21.9L17.4,598.6z"/>
<path class="st9" d="M5,496.4c-0.1-8.6,0-17.2,0.3-25.8l64.3,2.6c-0.3,7.4-0.4,14.9-0.3,22.3L5,496.4z"/>
<path class="st12" d="M8.5,432.1c2.1-17.1,5.1-34,8.9-50.7l62.6,14.6c-3.4,14.5-6,29.2-7.7,43.9L8.5,432.1z"/>
<path class="st12" d="M17.4,381.4c4.9-20.9,11.1-41.5,18.7-61.6l60.1,22.8c-6.6,17.4-12,35.2-16.2,53.4L17.4,381.4z"/>
<path class="st11" d="M127.8,277.3c38.3-64.3,93.3-117.1,159.1-152.8l36.4,67.1c-53.7,29.1-98.6,72.2-129.9,124.8L127.8,277.3z"/>
<path class="st12" d="M72.6,244.4c9.9-16.6,20.8-32.6,32.6-47.9l50.9,39.3c-10.2,13.3-19.7,27.1-28.2,41.5L72.6,244.4z"/>
<path class="st12" d="M134.4,162.2C157.9,137,184,114.5,212.3,95l36.5,52.9c-24.5,16.9-47.1,36.4-67.5,58.2L134.4,162.2z"/>
<path class="st12" d="M376.4,22.4c18.8-4.4,37.9-7.6,57.1-9.7l6.9,63.9c-16.7,1.8-33.2,4.6-49.5,8.4L376.4,22.4z"/>
<g>
	<path class="st16" d="M904.5,311.3l-5,2.1c7.3,17.1,15.2,39.1,20.1,57l28.2-7.7c-5.7-20.7-12.8-41-21.2-60.8
		c-16.9-39.6-39-76.7-65.7-110.4l-19.6,15.6C864.4,236.2,889.8,277,904.5,311.3z"/>
	<path class="st16" d="M963.4,451.4c-2.4-30-7.7-59.7-15.6-88.7l-23.2,6.4c6.9,25.1,12.6,58.3,14.7,84.3l-25,2
		c5.3,65.2-5.6,137.8-30.5,198.3l45.2,18.5C957.7,602.3,969.5,526.7,963.4,451.4z"/>
	<path class="st16" d="M825.7,783.8L806.3,767c-29.2,33.9-65.9,64.4-104.4,87.3l3.8,6.4c-22.4,13.3-48.4,26.5-72.9,35.4l16.3,44.9
		c28.3-10.3,55.5-23.2,81.4-38.6c44.4-26.4,84.2-59.9,118-99c33.7-39.1,60.9-83.4,80.6-131.2L902,661.1
		C885,702.5,855,749.9,825.7,783.8z"/>
	<path class="st16" d="M578.9,920.5l-1.8-8.1c-7.3,1.6-15.5,3.2-22.8,4.4l7.6,47c8.5-1.4,16.9-3,25.3-4.8
		c21-4.6,41.7-10.6,61.9-17.9l-13.5-37.2C618.1,910.2,597.1,916.5,578.9,920.5z"/>
	<path class="st16" d="M540.3,945.5l2.6,21c6.4-0.8,12.8-1.7,19.1-2.7l-3.4-20.9C553.1,943.8,545.8,944.8,540.3,945.5z"/>
	<path class="st16" d="M526,924.7c-27.8,2.6-59.9,1.8-87.7-1.2l-4.7,43.8c32.1,3.5,64.4,3.7,96.5,0.6c4.3-0.4,8.5-0.9,12.8-1.4
		l-5.2-43C533.9,923.9,529.7,924.4,526,924.7z"/>
	<path class="st16" d="M330.6,881.3l-21.8,55.2c40,15.8,82,26.1,124.8,30.8l6.4-59.4C402.9,903.9,365.2,894.9,330.6,881.3z"/>
	<path class="st16" d="M212.5,833.1l7.3-9.2c-13.1-10.4-26.9-22.1-38.7-34.1l-37.8,37.3c13.6,13.8,28,26.7,43.1,38.7
		c37.1,29.4,78.3,53.2,122.3,70.6l15.5-39.2C286.1,882.2,244.6,858.6,212.5,833.1z"/>
	<path class="st16" d="M139.8,795.8l15-13.3c-6.2-7-13.2-15.4-18.9-22.8l2.7-2.1c-18.2-23.6-36.8-52.8-49.6-79.7l-37.7,17.9
		c14.7,31.1,32.8,60.5,53.8,87.7c6.6,8.5,13.4,16.8,20.5,24.8c5.7,6.4,11.6,12.7,17.6,18.8l13.4-13.2
		C151.5,808.6,144.8,801.3,139.8,795.8z"/>
	<path class="st16" d="M61.1,588.5l-43.7,10.1c7.8,33.5,19.1,66.1,33.9,97.2l40.5-19.2C79.1,649.6,67.8,617.5,61.1,588.5z"/>
	<path class="st16" d="M44.8,567.6l6.9-1.2c-1.9-11-3.4-24-4.4-35.1l4.4-0.4c-1-11.1-2.2-23.8-2.3-35L5,496.4
		c0.2,12.9,0.9,25.8,2.1,38.6s2.9,25.6,5.2,38.3c1.5,8.5,3.2,16.9,5.2,25.3l31.8-7.4C47.6,584,46.1,574.9,44.8,567.6z"/>
	<path class="st16" d="M58.7,472.8l-53.4-2.2C5,479.3,4.9,487.9,5,496.4l53.8-0.7C58.8,488.3,58.4,480.3,58.7,472.8z"/>
	<path class="st16" d="M231.3,122.4l7.7,11.2c12.3-8.5,26.4-17.4,39.5-24.5l-8.3-15.4c16.4-8.9,37.8-18.1,55.2-24.7l-10.6-27.8
		c-20.1,7.6-39.7,16.6-58.5,26.8c-15.1,8.2-29.8,17.2-43.9,27c-28.3,19.5-54.4,42.1-77.9,67.2l24.1,22.5
		C178.8,162.9,206.7,139.3,231.3,122.4z"/>
	<path class="st16" d="M602.5,65.5l2.5-9.9c17.8,4.9,39.5,12.6,56.5,19.9l11.6-27.1c-19.8-8.4-40.1-15.5-60.8-21.2
		c-10.4-2.8-20.8-5.4-31.3-7.5l-7.5,38.8C582.6,60.4,593.5,63,602.5,65.5z"/>
	<path class="st16" d="M680.5,105.5l8-16c6.6,3.4,14.5,8.3,21,12l4.4-7.8c32,18.6,70.2,49.1,96.2,75.4l-15.6,15.4
		c7.8,7.9,16.1,17.7,23.3,26.2l34.9-29.3c-8.3-9.9-17-19.4-26-28.6c-30.2-30.6-64.4-57.1-101.7-78.6c-7.4-4.3-15-8.4-22.7-12.3
		c-9.6-4.9-19.3-9.4-29.2-13.6l-19.6,46.1C662.1,98.1,672.2,101.3,680.5,105.5z"/>
	<path class="st16" d="M830.1,215.9l30.7-24.4c-2.7-3.4-5.4-6.7-8.2-10l-30.1,25.2C825,209.5,827.8,212.9,830.1,215.9z"/>
	<path class="st16" d="M43.1,436.3l12.7,1.5c1.8-14.8,3.7-31.4,7.1-45.9l-9.6-2.2c4.2-18.1,11.1-39.4,17.7-56.8l12.6,4.8
		c8.6-22.6,20.5-46.4,32.9-67.2l-14.7-8.7c8.6-14.4,21-30.6,31.2-43.8l-27.8-21.5c-11.8,15.3-22.7,31.3-32.6,47.9
		c-14.3,24-26.5,49.2-36.4,75.3c-7.6,20.1-13.9,40.7-18.7,61.6c-3.9,16.7-6.9,33.7-8.9,50.7c-1.6,12.8-2.6,25.7-3.1,38.5l35.6,1.4
		C41.5,461,41.7,447.4,43.1,436.3z"/>
	<path class="st16" d="M165.5,191.3l-31.1-29.1c-10.3,11-20,22.4-29.2,34.3l34.2,26.5C147.4,212.7,156.6,200.8,165.5,191.3z"/>
	<path class="st16" d="M389,76.7l-3.9-16.8c16.3-3.8,35.9-7.3,52.5-9.1l0.6,5.3c7.4-0.8,15.9-1.6,23.3-2L460.6,37
		c7.4-0.4,16.9-0.6,24.4-0.6v10.1c27.9,0,61.1,3.5,88.5,9.1l7.5-35.8c-31.6-6.5-63.8-9.7-96-9.7c-8.6,0-17.2,0.2-25.8,0.7
		c-8.6,0.5-17.1,1.2-25.7,2.1c-19.2,2.1-38.3,5.3-57.1,9.7c-20.9,4.9-41.5,11.1-61.6,18.7l19.9,52.6C352.1,87.1,370.9,80.9,389,76.7
		z"/>
</g>
<g>
	<circle class="st17" cx="485" cy="490" r="330"/>
</g>
<g transform="translate(480,480)">
	<g class="st18">
		<path class="st19" d="M5,250c-132.5,0-240-107.5-240-240S-127.5-230,5-230S245-122.5,245,10S137.5,250,5,250z"/>
		<title>undefined: none</title>
	</g>
	<g>
		<text transform="matrix(0.2 -0.9798 0.9798 0.2 77.8899 -327.6174)" class="st17 st20 st21">ECT*</text>
		<title>ECT*: none</title>
	</g>
	<g>
		<text transform="matrix(0.1005 -0.9949 0.9949 0.1005 51.1618 -409.1503)" class="st22 st20 st21">T. Indeterm.</text>
		<title>Dipendente T. Indeterm.: 15</title>
	</g>
	<g>
		<text transform="matrix(0.2328 -0.9725 0.9725 0.2328 106.922 -399.2599)" class="st22 st20 st21">Dottorando </text>
		<title>Dottorando Borsa: 5</title>
	</g>
	<g>
		<text transform="matrix(0.3294 -0.9442 0.9442 0.3294 147.5047 -386.9286)" class="st22 st20 st21">Co.co. </text>
		<title>Co.co. (jobs act): 10</title>
	</g>
	<g>
		<text transform="matrix(0.4468 -0.8946 0.8946 0.4468 162.7445 -297.2473)" class="st17 st20 st21">CIRM</text>
		<title>CIRM: none</title>
	</g>
	<g>
		<text transform="matrix(0.4226 -0.9063 0.9063 0.4226 186.736 -370.557)" class="st22 st20 st21">Co.co. </text>
		<title>Co.co. (jobs act): 5</title>
	</g>
	<g>
		<text transform="matrix(0.4766 -0.8791 0.8791 0.4766 209.3839 -358.9012)" class="st22 st20 st21">T. Indeterm.</text>
		<title>Dipendente T. Indeterm.: 4</title>
	</g>
	<g>
		<text transform="matrix(0.653 -0.7574 0.7574 0.653 233.4813 -249.1472)" class="st17 st20 st21">CNR</text>
		<title>CNR: none</title>
	</g>
	<g>
		<text transform="matrix(0.6114 -0.7913 0.7913 0.6114 265.9095 -321.373)" class="st22 st20 st21">T. Indeterm.</text>
		<title>Dipendente T. Indeterm.: 20</title>
	</g>
	<g>
		<text transform="matrix(0.7395 -0.6731 0.6731 0.7395 319.4296 -270.9919)" class="st22 st20 st21">Co.co. </text>
		<title>Co.co. (jobs act): 6</title>
	</g>
	<g>
		<text transform="matrix(0.7746 -0.6324 0.6324 0.7746 334.1575 -253.7059)" class="st22 st20 st21">T. Determ.</text>
		<title>Dipendente T. Determ.: 2</title>
	</g>
	<g>
		<text transform="matrix(0.9901 -0.1405 0.1405 0.9901 347.5015 -34.7037)" class="st17 st20 st21">ICT</text>
		<title>ICT: none</title>
	</g>
	<g>
		<text transform="matrix(0.8592 -0.5116 0.5116 0.8592 369.2532 -202.4521)" class="st22 st20 st21">T. Indeterm.</text>
		<title>Dipendente T. Indeterm.: 20</title>
	</g>
	<g>
		<text transform="matrix(0.9442 -0.3294 0.3294 0.9442 404.3997 -125.2276)" class="st22 st20 st21">Dottorando </text>
		<title>Dottorando Borsa: 10</title>
	</g>
	<g>
		<text transform="matrix(0.9848 -0.1736 0.1736 0.9848 420.9872 -59.4286)" class="st22 st20 st21">T. Determ.</text>
		<title>Dipendente T. Determ.: 14</title>
	</g>
	<g>
		<text transform="matrix(0.9881 0.1538 -0.1538 0.9881 421.0635 78.5971)" class="st22 st20 st21">Co.co.</text>
		<title>Co.co. (jobs act): 35</title>
	</g>
	<g>
		<text transform="matrix(0.6428 0.766 -0.766 0.6428 224.1339 277.0621)" class="st17 st20 st21">CMM</text>
		<title>CMM: none</title>
	</g>
	<g>
		<text transform="matrix(0.8523 0.5231 -0.5231 0.8523 362.4028 233.8567)" class="st22 st20 st21">T. Indeterm.</text>
		<title>Dipendente T. Indeterm.: 24</title>
	</g>
	<g>
		<text transform="matrix(0.6428 0.766 -0.766 0.6428 273.1661 335.4967)" class="st22 st20 st21">Co.co. </text>
		<title>Co.co. (jobs act): 24</title>
	</g>
	<g>
		<text transform="matrix(0.4287 0.9035 -0.9035 0.4287 182.2824 392.6035)" class="st22 st20 st21">T. Determ.</text>
		<title>Dipendente T. Determ.: 14</title>
	</g>
	<g>
		<text transform="matrix(0.2782 0.9605 -0.9605 0.2782 118.6271 416.1506)" class="st22 st20 st21">Dottorando </text>
		<title>Dottorando Borsa: 10</title>
	</g>
	<g>
		<text transform="matrix(0.1538 0.9881 -0.9881 0.1538 54.3423 351.8423)" class="st17 st20 st21">ECT* LISC</text>
		<title>ECT* LISC: none</title>
	</g>
	<g>
		<text transform="matrix(0.1868 0.9824 -0.9824 0.1868 79.965 424.9679)" class="st22 st20 st21">Dottorando </text>
		<title>Dottorando Borsa: 4</title>
	</g>
	<g>
		<text transform="matrix(0.1405 0.9901 -0.9901 0.1405 60.4221 428.0264)" class="st22 st20 st21">T. Indeterm.</text>
		<title>Dipendente T. Indeterm.: 3</title>
	</g>
	<g>
		<text transform="matrix(0.1072 0.9942 -0.9942 0.1072 46.3678 429.7056)" class="st22 st20 st21">Co.co. </text>
		<title>Co.co. (jobs act): 2</title>
	</g>
	<g>
		<text transform="matrix(-0.2847 0.9586 -0.9586 -0.2847 -97.0329 340.0236)" class="st23"><tspan x="0" y="0" class="st22 st20 st21">SERVIZIO</tspan><tspan x="0" y="12" class="st22 st20 st21">AMMINISTRAZIONE</tspan></text>
		<title>SERVIZIO AMMINISTRAZIONE: none</title>
	</g>
	<g>
		<text transform="matrix(-6.710000e-03 1 -1 -6.710000e-03 -1.6812 431.6994)" class="st22 st20 st21">Co.co.</text>
		<title>Co.co. (jobs act): 15</title>
	</g>
	<g>
		<text transform="matrix(-0.2393 0.9709 -0.9709 -0.2393 -99.6715 418.465)" class="st22 st20 st21">T. Determ.</text>
		<title>Dipendente T. Determ.: 20</title>
	</g>
	<g>
		<text transform="matrix(-0.5 0.866 -0.866 -0.5 -209.2198 373.3058)" class="st22 st20 st21">T. Indeterm.</text>
		<title>Dipendente T. Indeterm.: 22</title>
	</g>
	<g>
		<text transform="matrix(-0.7118 0.7023 -0.7023 -0.7118 -243.5625 249.8031)" class="st22 st20 st21">CERPIC</text>
		<title>CERPIC: none</title>
	</g>
	<g>
		<text transform="matrix(-0.6681 0.744 -0.744 -0.6681 -279.5728 321.1859)" class="st22 st20 st21">Borsa</text>
		<title>Dottorando Borsa: 9</title>
	</g>
	<g>
		<text transform="matrix(-0.7304 0.683 -0.683 -0.7304 -305.6705 295.1757)" class="st22 st20 st21">T. Determ.</text>
		<title>Dipendente T. Determ.: 4</title>
	</g>
	<g>
		<text transform="matrix(-0.7703 0.6376 -0.6376 -0.7703 -322.2791 275.9295)" class="st22 st20 st21">Co.co. </text>
		<title>Co.co. (jobs act): 5</title>
	</g>
	<g>
		<text transform="matrix(-0.9146 0.4043 -0.4043 -0.9146 -312.4295 146.1426)" class="st23"><tspan x="0" y="0" class="st22 st20 st21">PROGETTI</tspan><tspan x="0" y="12" class="st22 st20 st21">SPECIALI</tspan></text>
		<title>PROGETTI SPECIALI: none</title>
	</g>
	<g>
		<text transform="matrix(-0.8523 0.5231 -0.5231 -0.8523 -356.4161 227.2802)" class="st22 st20 st21">Co.co.</text>
		<title>Co.co. (jobs act): 16</title>
	</g>
	<g>
		<text transform="matrix(-0.9442 0.3294 -0.3294 -0.9442 -394.3997 145.2274)" class="st22 st20 st21">T. Indeterm.</text>
		<title>Dipendente T. Indeterm.: 16</title>
	</g>
	<g>
		<text transform="matrix(-0.9798 0.2 -0.2 -0.9798 -408.9721 90.6147)" class="st22 st20 st21">T. Determ.</text>
		<title>Dipendente T. Determ.: 4</title>
	</g>
	<g>
		<text transform="matrix(-0.9978 6.708000e-02 -6.708000e-02 -0.9978 -338.9283 37.3241)" class="st23"><tspan x="0" y="0" class="st22 st20 st21">BEHAVIOURAL</tspan><tspan x="0" y="12" class="st22 st20 st21"> ECONOMICS</tspan></text>
		<title>BEHAVIOURAL ECONOMICS: none</title>
	</g>
	<g>
		<text transform="matrix(-0.991 0.1338 -0.1338 -0.991 -413.3768 62.6165)" class="st22 st20 st21">T. Determ.</text>
		<title>Dipendente T. Determ.: 6</title>
	</g>
	<g>
		<text transform="matrix(-0.9986 5.368000e-02 -5.368000e-02 -0.9986 -416.3329 28.8014)" class="st22 st20 st21">Borsa</text>
		<title>Dottorando Borsa: 6</title>
	</g>
	<g>
		<text transform="matrix(-0.9999 -1.343000e-02 1.343000e-02 -0.9999 -416.5613 0.4518)" class="st22 st20 st21">Co.co. </text>
		<title>Co.co. (jobs act): 4</title>
	</g>
	<g>
		<text transform="matrix(-0.9586 -0.2847 0.2847 -0.9586 -325.0256 -92.0329)" class="st22 st20 st21">IRVAPP</text>
		<title>IRVAPP: none</title>
	</g>
	<g>
		<text transform="matrix(-0.9968 -8.047000e-02 8.047000e-02 -0.9968 -415.0055 -27.8191)" class="st22 st20 st21">Borsa</text>
		<title>Dottorando Borsa: 6</title>
	</g>
	<g>
		<text transform="matrix(-0.9848 -0.1736 0.1736 -0.9848 -409.6187 -67.0503)" class="st22 st20 st21">Co.co. </text>
		<title>Co.co. (jobs act): 8</title>
	</g>
	<g>
		<text transform="matrix(-0.9567 -0.2911 0.2911 -0.9567 -397.3165 -116.483)" class="st22 st20 st21">T. Determ.</text>
		<title>Dipendente T. Determ.: 10</title>
	</g>
	<g>
		<text transform="matrix(-0.9006 -0.4348 0.4348 -0.9006 -373.0418 -176.7952)" class="st22 st20 st21">T. Indeterm.</text>
		<title>Dipendente T. Indeterm.: 13</title>
	</g>
	<g>
		<text transform="matrix(-0.6927 -0.7212 0.7212 -0.6927 -231.4863 -241.7224)" class="st22 st20 st21">ISIG</text>
		<title>ISIG: none</title>
	</g>
	<g>
		<text transform="matrix(-0.8268 -0.5625 0.5625 -0.8268 -341.47 -230.4274)" class="st22 st20 st21">T. Indeterm.</text>
		<title>Dipendente T. Indeterm.: 9</title>
	</g>
	<g>
		<text transform="matrix(-0.7617 -0.6479 0.6479 -0.7617 -313.6553 -266.1685)" class="st22 st20 st21">Dottorando </text>
		<title>Dottorando Borsa: 7</title>
	</g>
	<g>
		<text transform="matrix(-0.653 -0.7574 0.7574 -0.653 -267.3899 -311.8774)" class="st22 st20 st21">Co.co. </text>
		<title>Co.co. (jobs act): 16</title>
	</g>
	<g>
		<text transform="matrix(-0.5231 -0.8523 0.8523 -0.5231 -212.2802 -351.4161)" class="st22 st20 st21">T. Determ.</text>
		<title>Dipendente T. Determ.: 8</title>
	</g>
	<g>
		<text transform="matrix(-0.2975 -0.9547 0.9547 -0.2975 -94.0695 -320.8842)" class="st22 st20 st21">ISR</text>
		<title>ISR: none</title>
	</g>
	<g>
		<text transform="matrix(-0.4165 -0.9091 0.9091 -0.4165 -167.1448 -374.8985)" class="st22 st20 st21">Co.co. </text>
		<title>Co.co. (jobs act): 10</title>
	</g>
	<g>
		<text transform="matrix(-0.2911 -0.9567 0.9567 -0.2911 -114.0532 -394.6007)" class="st22 st20 st21">T. Determ.</text>
		<title>Dipendente T. Determ.: 10</title>
	</g>
	<g>
		<text transform="matrix(-0.167 -0.9859 0.9859 -0.167 -61.6254 -406.3694)" class="st22 st20 st21">T. Indeterm.</text>
		<title>Dipendente T. Indeterm.: 9</title>
	</g>
	<g>
		<text transform="matrix(-5.368000e-02 -0.9986 0.9986 -5.368000e-02 -9.705 -335.1601)" class="st22 st20 st21">N/D</text>
		<title>N/D: none</title>
	</g>
	<g>
		<text transform="matrix(-8.047000e-02 -0.9968 0.9968 -8.047000e-02 -25.0968 -410.6846)" class="st22 st20 st21">T. Determ.</text>
		<title>Dipendente T. Determ.: 4</title>
	</g>
	<g>
		<text transform="matrix(-2.685000e-02 -0.9996 0.9996 -2.685000e-02 -2.4852 -411.6662)" class="st22 st20 st21">T. Indeterm.</text>
		<title>Dipendente T. Indeterm.: 4</title>
	</g>
</g>
<path class="st24" d="M485,490"/>
<line class="st24" x1="485" y1="490" x2="544" y2="1126"/>
<line class="st24" x1="485" y1="490" x2="-103.1" y2="467"/>
<line class="st24" x1="485" y1="490" x2="430.1" y2="-16.3"/>
<line class="st24" x1="485" y1="490" x2="485" y2="-11.3"/>
<path id="SVGID_x5F_1_x5F_" class="st25" d="M555.3,797.1c-169.6,38.8-338.5-67.2-377.4-236.8s67.2-338.5,236.8-377.4
	s338.5,67.2,377.4,236.8S724.9,758.2,555.3,797.1z"/>
<text><textPath  xlink:href="#SVGID_x5F_1_x5F_" startOffset="103.133%">
<tspan  class="st20" style="font-size:9.5455px;">POLO SCIENTIFICO</tspan></textPath>
</text>
<path id="SVGID_x5F_2_x5F_" class="st25" d="M171.7,457.7c17.9-173.1,172.6-298.9,345.7-281s298.9,172.6,281,345.7
	c-17.9,173-172.6,298.9-345.7,281C279.6,785.5,153.8,630.7,171.7,457.7z"/>
<text><textPath  xlink:href="#SVGID_x5F_2_x5F_" startOffset="103.133%">
<tspan  class="st20" style="font-size:9.5455px;">CASSR</tspan></textPath>
</text>
<path id="SVGID_x5F_3_x5F_" class="st25" d="M281.5,249.6c132.8-112.4,331.6-95.8,443.9,37s95.8,331.6-37,443.9
	s-331.6,95.8-443.9-37S148.7,361.9,281.5,249.6z"/>
<text><textPath  xlink:href="#SVGID_x5F_3_x5F_" startOffset="103.133%">
<tspan  class="st20" style="font-size:9.5455px;">PROGETTI SPECIALI</tspan></textPath>
</text>
<path id="SVGID_x5F_4_x5F_" class="st25" d="M628.6,209.6c154.8,79.3,216.1,269.1,136.8,424s-269.1,216.1-424,136.8
	s-216.1-269.1-136.8-424S473.7,130.3,628.6,209.6z"/>
<text><textPath  xlink:href="#SVGID_x5F_4_x5F_" startOffset="103.133%">
<tspan  class="st20" style="font-size:9.5455px;">POLO UMANISTICO</tspan></textPath>
</text>
<line class="st24" x1="485" y1="490" x2="122.8" y2="946.2"/>
<g>
	<rect x="239.3" y="442" class="st25" width="499" height="57"/>
	<text transform="matrix(1 0 0 1 239.3376 456.2852)"><tspan x="0" y="0" class="st26 st27 st28">Lorem ipsum dolor sit amet, consectetuer adipiscing elit, sed </tspan><tspan x="0" y="32" class="st26 st27 st28">diam nonummy nibh euismod tincidunt ut laoreet dolore magna </tspan></text>
</g>
<g>
	<rect x="248.2" y="605" class="st25" width="101.7" height="55"/>
	<text transform="matrix(1 0 0 1 271.9622 619.2852)"><tspan x="0" y="0" class="st26 st27 st28">Co. co.</tspan><tspan x="-6.8" y="19" class="st26 st27 st28">JoibsAct</tspan></text>
</g>
<g>
	<rect x="336.6" y="605" class="st25" width="167.7" height="50.4"/>
	<text transform="matrix(1 0 0 1 394.0553 619.2852)"><tspan x="0" y="0" class="st26 st27 st28">Tempo </tspan><tspan x="-26.9" y="19" class="st26 st27 st28">indeterminato</tspan></text>
</g>
<circle class="st26" cx="572.1" cy="394.6" r="18.7"/>
<circle class="st26" cx="392.4" cy="395.6" r="18.7"/>
<rect x="173.7" y="374.3" class="st25" width="619.3" height="61.1"/>
<text transform="matrix(1 0 0 1 382.9538 409.9064)"><tspan x="0" y="0" class="st29 st30 st31">– </tspan><tspan x="33.5" y="0" class="st29 st32 st31"> </tspan><tspan x="44.1" y="0" class="st26 st32 st31">2016</tspan><tspan x="156.5" y="0" class="st17 st32 st31">  </tspan><tspan x="177.8" y="0" class="st17 st30 st31">+</tspan></text>
<g>
	<rect x="261.9" y="538.3" class="st25" width="74.3" height="45.7"/>
	<text transform="matrix(1 0 0 1 269.3316 573.9065)" class="st26 st32 st31">46</text>
</g>
<g>
	<rect x="360" y="538.3" class="st25" width="121" height="40.7"/>
	<text transform="matrix(1 0 0 1 386.6365 573.9065)" class="st26 st32 st31">131</text>
</g>
<g>
	<rect x="457.1" y="605" class="st25" width="167.7" height="50.4"/>
	<text transform="matrix(1 0 0 1 514.5553 619.2852)"><tspan x="0" y="0" class="st26 st27 st28">Tempo </tspan><tspan x="-19.9" y="19" class="st26 st27 st28">determinato</tspan></text>
</g>
<g>
	<rect x="571.1" y="605" class="st25" width="167.7" height="50.4"/>
	<text transform="matrix(1 0 0 1 614.5773 619.2852)"><tspan x="0" y="0" class="st26 st27 st28">Dottorandi</tspan><tspan x="2.4" y="19" class="st26 st27 st28">con borsa</tspan></text>
</g>
<g>
	<rect x="480.5" y="538.3" class="st25" width="121" height="40.7"/>
	<text transform="matrix(1 0 0 1 499.8645 573.9065)" class="st26 st32 st31">140</text>
</g>
<g>
	<rect x="621.7" y="538.3" class="st25" width="74.3" height="61.1"/>
	<text transform="matrix(1 0 0 1 629.1819 573.9065)" class="st26 st32 st31">46</text>
</g>
<rect x="240" y="512.3" class="st26" width="486.3" height="3.5"/>
<rect x="240" y="512.3" class="st33" width="310.6" height="3.5"/>
<rect x="268" y="590.2" class="st26" width="56.7" height="1.9"/>
<rect x="268" y="590.2" class="st33" width="36.2" height="1.9"/>
<rect x="393.3" y="590.2" class="st26" width="56.7" height="1.9"/>
<rect x="393.3" y="590.2" class="st33" width="28.2" height="1.9"/>
<rect x="510.1" y="590.2" class="st26" width="56.7" height="1.9"/>
<rect x="510.1" y="590.2" class="st33" width="45" height="1.9"/>
<rect x="628.1" y="590.2" class="st26" width="56.7" height="1.9"/>
<rect x="628.1" y="590.2" class="st33" width="17.9" height="1.9"/>
</svg>
